<svg id="圖層_1" data-name="圖層 1" xmlns="http://www.w3.org/2000/svg" xmlns:xlink="http://www.w3.org/1999/xlink" viewBox="0 0 712.52 1080"><defs><clipPath id="clip-path" transform="translate(329.52)"><rect x="0.5" y="51" width="382" height="909.18" style="fill:none"/></clipPath></defs><title>leftarea</title><rect width="383" height="1080" transform="translate(712.52 1080) rotate(180)" style="fill:#2b4586"/><g style="clip-path:url(#clip-path)"><path d="M-329.52,346.07c78.43,54,191.26,106.23,368.7,29.7,117.94-50.88,154.88,28.64,156.38,32.07l75-33.33C246.33,320,160,234.32,6.64,300.44c-139.32,60.1-221.54,25-289.65-21.92Z" transform="translate(329.52)" style="fill:#fff"/><path d="M53.85,504.74H-47.22v82H53.85c97.64,0,119.42,19.08,129.07,59.21a107.86,107.86,0,0,1,2.56,25.12v70.13c0,10.17-.8,18-2.48,24.57-8,31.12-29.14,59.86-129.15,59.86H-48.6c-36.52-2.63-234-10.27-266.6,96.85l78.48,23.9c8.72-28.64,105.26-44.2,185.4-38.81l105.17.09c43.88,0,177.45,0,208.6-121.5,3.45-13.41,5.07-27.71,5.07-45V671.11a188.19,188.19,0,0,0-4.83-44.3C233.32,504.74,116.57,504.74,53.85,504.74Z" transform="translate(329.52)" style="fill:#ddb63e"/><rect x="280.91" y="665.2" width="161.56" height="82.04" style="fill:#fff"/></g></svg>