<svg id="圖層_1" data-name="圖層 1" xmlns="http://www.w3.org/2000/svg" viewBox="0 0 17.87 17.87"><title>mapicon</title><path d="M8.94,3.26A3.83,3.83,0,0,0,5.11,7.09c0,1.87,1.54,7.52,3.83,7.52S12.77,9,12.77,7.09A3.84,3.84,0,0,0,8.94,3.26Zm0,10.51c-1.43,0-3-4.69-3-6.68a3,3,0,1,1,6,0C11.92,9.08,10.36,13.77,8.94,13.77Z" style="fill:#fff"/><path d="M8.94,5.36A2.11,2.11,0,1,0,11,7.46,2.11,2.11,0,0,0,8.94,5.36Zm0,3.37A1.27,1.27,0,1,1,10.2,7.46,1.27,1.27,0,0,1,8.94,8.73Z" style="fill:#fff"/><path d="M8.94,17.87a8.94,8.94,0,1,1,8.93-8.93A8.95,8.95,0,0,1,8.94,17.87Zm0-17A8.1,8.1,0,1,0,17,8.94,8.1,8.1,0,0,0,8.94.84Z" style="fill:#fff"/></svg>