<svg id="圖層_1" data-name="圖層 1" xmlns="http://www.w3.org/2000/svg" viewBox="0 0 732.57 555.27"><title>about_line_1</title><path d="M464,555.27H336.89V452.13H464c122.76,0,150.13-24,162.27-74.43,2.15-9,3.21-19.39,3.21-31.59V258c0-12.79-1-22.63-3.12-30.88-10-39.13-36.63-75.26-162.36-75.26H335.15C289.24,155.11,41,164.72,0,30.06L98.65,0c11,36,132.34,55.57,233.08,48.8L464,48.68c55.16,0,223.09,0,262.25,152.75,4.33,16.86,6.37,34.83,6.37,56.52v88.16c0,20.39-2,38.6-6.07,55.69C689.58,555.27,542.8,555.27,464,555.27Z" style="fill:#e2bb3e"/><rect x="335.15" y="250.41" width="203.11" height="103.13" style="fill:#e2bb3e"/></svg>