<svg id="圖層_1" data-name="圖層 1" xmlns="http://www.w3.org/2000/svg" viewBox="0 0 120.55 39.33"><title>chlogo</title><path d="M0,38.92a1.61,1.61,0,0,0,.83-.23c.13-.1.19-.38.19-.81V32.71a1.14,1.14,0,0,0-.19-.8A1.33,1.33,0,0,0,0,31.67v-.21H6.17l0,1.66h-.3a1.66,1.66,0,0,0-.44-1,2.47,2.47,0,0,0-1.31-.22H2.57c-.17,0-.27,0-.31.08a.56.56,0,0,0-.06.31v2.59H4a1.36,1.36,0,0,0,1-.22,2.05,2.05,0,0,0,.33-.89h.27v2.68H5.27a1.87,1.87,0,0,0-.34-.89c-.13-.15-.45-.22-.94-.22H2.2v2.87c0,.23.07.37.22.41a7.61,7.61,0,0,0,1.31.06,4.47,4.47,0,0,0,1.74-.25,2.43,2.43,0,0,0,1-1.25H6.8l-.52,2H0Z" style="fill:#fff"/><path d="M10,33.87v.18a1.33,1.33,0,0,0-.42.09.25.25,0,0,0-.12.25,1,1,0,0,0,0,.17l.09.24,1.19,2.85,1-2.52a3.54,3.54,0,0,0,.14-.39,1.28,1.28,0,0,0,.07-.31.35.35,0,0,0-.21-.32,1.39,1.39,0,0,0-.34-.06v-.18h1.61v.18a.49.49,0,0,0-.4.18,3.73,3.73,0,0,0-.36.75l-1.64,4.08a1.13,1.13,0,0,1-.07.15.11.11,0,0,1-.08,0,.12.12,0,0,1-.1-.06L10.35,39,8.61,34.87a1.74,1.74,0,0,0-.44-.69.91.91,0,0,0-.42-.13v-.18Z" style="fill:#fff"/><path d="M18,34.37a2,2,0,0,1,.6,1.57H15a3,3,0,0,0,.59,1.91,1.67,1.67,0,0,0,1.28.6,1.57,1.57,0,0,0,1-.31,3.2,3.2,0,0,0,.76-.88l.19.07a3.13,3.13,0,0,1-.87,1.33,2.14,2.14,0,0,1-1.56.61,1.9,1.9,0,0,1-1.64-.8,3.1,3.1,0,0,1-.59-1.86,3,3,0,0,1,.68-2,2.16,2.16,0,0,1,1.76-.83A2,2,0,0,1,18,34.37Zm-2.72.44a2.18,2.18,0,0,0-.26.77H17.4a2.43,2.43,0,0,0-.21-.85,1,1,0,0,0-.93-.5A1.08,1.08,0,0,0,15.27,34.81Z" style="fill:#fff"/><path d="M19.71,39a1.38,1.38,0,0,0,.69-.18c.12-.1.17-.29.17-.6V35.62a2.24,2.24,0,0,0-.1-.81.38.38,0,0,0-.38-.24l-.15,0-.2,0v-.18l.66-.24a4.1,4.1,0,0,0,.47-.17l.58-.24s.05,0,.05,0a.35.35,0,0,1,0,.12v.93a4.38,4.38,0,0,1,.7-.79,1.08,1.08,0,0,1,.7-.28.66.66,0,0,1,.48.17.61.61,0,0,1,0,.82.43.43,0,0,1-.35.16.61.61,0,0,1-.43-.2.61.61,0,0,0-.35-.19c-.13,0-.29.1-.48.32a.94.94,0,0,0-.29.66v2.55a.85.85,0,0,0,.22.68,1.12,1.12,0,0,0,.76.18v.19h-2.8Z" style="fill:#fff"/><path d="M24.15,31.93v-.2a11,11,0,0,0,1.16-.33l.56-.18a.2.2,0,0,1,0,.07v3.45a1.87,1.87,0,0,1,.44-.51,1.83,1.83,0,0,1,2.63.28,2.72,2.72,0,0,1,.58,1.82,3,3,0,0,1-.76,2.06,2.56,2.56,0,0,1-2,.85A3.16,3.16,0,0,1,25.52,39c-.4-.16-.61-.33-.61-.49v-6a.88.88,0,0,0-.09-.46c-.06-.1-.2-.14-.42-.14Zm2.16,6.8a2.32,2.32,0,0,0,.68.12,1.27,1.27,0,0,0,1.17-.59,2.66,2.66,0,0,0,.38-1.44,3.57,3.57,0,0,0-.35-1.56A1.2,1.2,0,0,0,27,34.55a1.48,1.48,0,0,0-.78.24.72.72,0,0,0-.38.63V38.3C25.9,38.5,26.05,38.64,26.31,38.73Z" style="fill:#fff"/><path d="M32.29,33.89v3.63a1.48,1.48,0,0,0,.11.61.78.78,0,0,0,.77.43,1.27,1.27,0,0,0,.75-.25,2.53,2.53,0,0,0,.43-.39V34.81a.73.73,0,0,0-.17-.57,1.29,1.29,0,0,0-.68-.17v-.18h1.83v4a.78.78,0,0,0,.14.53.84.84,0,0,0,.59.13v.15l-.46.13-.5.16-.64.24,0,0v-1a3.36,3.36,0,0,1-.71.68,1.71,1.71,0,0,1-1,.34,1.42,1.42,0,0,1-.93-.35,1.4,1.4,0,0,1-.44-1.16V34.78a.73.73,0,0,0-.19-.6,1.13,1.13,0,0,0-.53-.13v-.16Z" style="fill:#fff"/><path d="M37.11,39a1.43,1.43,0,0,0,.76-.21c.11-.1.16-.37.16-.81V35.25a1.94,1.94,0,0,0-.05-.51.35.35,0,0,0-.36-.23H37.5l-.34.09v-.17l.24-.08c.66-.22,1.12-.38,1.38-.49A.67.67,0,0,1,39,33.8a.28.28,0,0,1,0,.09V38a1.28,1.28,0,0,0,.16.81,1.12,1.12,0,0,0,.7.21v.16H37.11ZM38,31.4a.54.54,0,0,1,.42-.18.54.54,0,0,1,.41.18.54.54,0,0,1,.18.42.54.54,0,0,1-.18.41.57.57,0,0,1-.41.17.57.57,0,0,1-.42-.17.53.53,0,0,1-.17-.41A.54.54,0,0,1,38,31.4Z" style="fill:#fff"/><path d="M40.92,39a1.5,1.5,0,0,0,.72-.21.86.86,0,0,0,.19-.64V32.59a1.42,1.42,0,0,0-.07-.51.45.45,0,0,0-.46-.24l-.17,0-.23.05v-.19c.51-.13,1.12-.32,1.84-.54a.05.05,0,0,1,0,0v6.95a.85.85,0,0,0,.17.63,1.35,1.35,0,0,0,.71.19v.16H40.92Z" style="fill:#fff"/><path d="M48,34a1.87,1.87,0,0,1,.44.33v-1.8a1.06,1.06,0,0,0-.08-.48c0-.09-.17-.13-.36-.13h-.12l-.23,0v-.19l.46-.12.51-.14.45-.14.3-.11h0v.6c0,.21,0,.44,0,.66v5.31a1.07,1.07,0,0,0,.09.52q.09.15.48.15h.25v.19l-.82.28-.89.33,0-.05V38.5a3.12,3.12,0,0,1-.55.49,1.81,1.81,0,0,1-1,.25,1.9,1.9,0,0,1-1.56-.74,2.68,2.68,0,0,1-.6-1.73,3.23,3.23,0,0,1,.72-2.11,2.16,2.16,0,0,1,1.75-.88A1.61,1.61,0,0,1,48,34Zm.17,4.41a.72.72,0,0,0,.27-.49V35.45a1.21,1.21,0,0,0-.4-1,1.23,1.23,0,0,0-.76-.31,1.26,1.26,0,0,0-1.12.63,2.94,2.94,0,0,0-.39,1.56,3.17,3.17,0,0,0,.42,1.63,1.38,1.38,0,0,0,1.26.71A1,1,0,0,0,48.17,38.37Z" style="fill:#fff"/><path d="M60,31.51a6.65,6.65,0,0,0,.74.18A.56.56,0,0,0,61,31.6a.47.47,0,0,0,.21-.28h.24l.11,2.61h-.27a3.7,3.7,0,0,0-.6-1.26,2.35,2.35,0,0,0-1.92-.89,2.45,2.45,0,0,0-2,1A4.17,4.17,0,0,0,56,35.4a3.65,3.65,0,0,0,.81,2.48,2.64,2.64,0,0,0,2.06.92,3.26,3.26,0,0,0,1.66-.43,5,5,0,0,0,1-.74l.22.22a4,4,0,0,1-1,.86,3.91,3.91,0,0,1-2.12.62,3.85,3.85,0,0,1-3-1.2,3.93,3.93,0,0,1-1-2.76,4,4,0,0,1,1.07-2.84,3.82,3.82,0,0,1,2.94-1.21A4.53,4.53,0,0,1,60,31.51Z" style="fill:#fff"/><path d="M63.7,34.6a2.37,2.37,0,0,1,1.84-.78,2.52,2.52,0,0,1,1.86.74,2.65,2.65,0,0,1,.74,2,2.91,2.91,0,0,1-.72,2,2.32,2.32,0,0,1-1.84.83,2.43,2.43,0,0,1-1.85-.8,2.81,2.81,0,0,1-.75-2A2.7,2.7,0,0,1,63.7,34.6Zm.9-.15A2.33,2.33,0,0,0,64,36.23a4.09,4.09,0,0,0,.46,1.89,1.41,1.41,0,0,0,1.27.87,1.08,1.08,0,0,0,1-.58,3,3,0,0,0,.34-1.53A4.06,4.06,0,0,0,66.65,35a1.39,1.39,0,0,0-1.27-.87A1.16,1.16,0,0,0,64.6,34.45Z" style="fill:#fff"/><path d="M69.28,39a1,1,0,0,0,.56-.2A1,1,0,0,0,70,38.1V35.23a1.52,1.52,0,0,0-.06-.51.45.45,0,0,0-.45-.21h-.1l-.13,0v-.2l1.1-.35.53-.18a0,0,0,0,1,0,0s0,.05,0,.08v.83a6.28,6.28,0,0,1,.81-.67,1.75,1.75,0,0,1,.92-.27,1.19,1.19,0,0,1,.7.22A1.73,1.73,0,0,1,74,35.55V38.2a.87.87,0,0,0,.16.59.75.75,0,0,0,.55.19v.16H72.28V39a1,1,0,0,0,.58-.23A1.18,1.18,0,0,0,73,38V35.58a1.62,1.62,0,0,0-.18-.81.7.7,0,0,0-.66-.32,1.16,1.16,0,0,0-.68.23,3.65,3.65,0,0,0-.5.43v3.17a.67.67,0,0,0,.18.55,1.09,1.09,0,0,0,.58.15v.16H69.28Z" style="fill:#fff"/><path d="M76.06,37.35h.19a3,3,0,0,0,.35,1,1.27,1.27,0,0,0,1.16.64.93.93,0,0,0,.67-.24.83.83,0,0,0,.1-1.07,1.48,1.48,0,0,0-.5-.43l-.63-.36a3.81,3.81,0,0,1-1-.75,1.33,1.33,0,0,1-.33-.9,1.35,1.35,0,0,1,.46-1,1.64,1.64,0,0,1,1.14-.41,2.39,2.39,0,0,1,.66.11l.4.12a.28.28,0,0,0,.15,0,.24.24,0,0,0,.08-.09h.14l0,1.58h-.18a2.74,2.74,0,0,0-.31-.86,1.12,1.12,0,0,0-1-.56.8.8,0,0,0-.62.24.77.77,0,0,0-.23.57q0,.53.78.93l.75.4c.8.44,1.21,1,1.21,1.54a1.38,1.38,0,0,1-.5,1.09,2,2,0,0,1-1.31.42,2.8,2.8,0,0,1-.77-.11,4.44,4.44,0,0,0-.51-.11.13.13,0,0,0-.12,0,.28.28,0,0,0-.08.11h-.15Z" style="fill:#fff"/><path d="M83.51,33.91v.41H82.35v3.26a2.24,2.24,0,0,0,.07.66.53.53,0,0,0,.54.39.68.68,0,0,0,.35-.1,1.54,1.54,0,0,0,.34-.31l.15.13-.12.17a1.9,1.9,0,0,1-.63.56,1.4,1.4,0,0,1-.63.16.89.89,0,0,1-.91-.59,2.41,2.41,0,0,1-.13-.9V34.32h-.62l0,0s0,0,0,0,0-.07,0-.09l.16-.14a5.38,5.38,0,0,0,.57-.53c.11-.13.38-.49.81-1.06h.09s0,0,0,.09v1.39Z" style="fill:#fff"/><path d="M84.41,39a1.38,1.38,0,0,0,.69-.18c.12-.1.17-.29.17-.6V35.62a2.24,2.24,0,0,0-.1-.81.38.38,0,0,0-.38-.24l-.15,0-.2,0v-.18l.66-.24a4.1,4.1,0,0,0,.47-.17l.58-.24a0,0,0,0,1,0,0,.35.35,0,0,1,0,.12v.93a4,4,0,0,1,.7-.79,1.08,1.08,0,0,1,.7-.28.62.62,0,0,1,.47.17.54.54,0,0,1,.19.43.56.56,0,0,1-.14.39.44.44,0,0,1-.35.16.61.61,0,0,1-.43-.2.61.61,0,0,0-.35-.19c-.13,0-.29.1-.49.32a1,1,0,0,0-.28.66v2.55a.85.85,0,0,0,.22.68,1.11,1.11,0,0,0,.76.18v.19h-2.8Z" style="fill:#fff"/><path d="M90.6,33.89v3.63a1.48,1.48,0,0,0,.11.61.78.78,0,0,0,.77.43,1.32,1.32,0,0,0,.76-.25,2.49,2.49,0,0,0,.42-.39V34.81c0-.29,0-.48-.17-.57a1.29,1.29,0,0,0-.68-.17v-.18h1.83v4a.78.78,0,0,0,.14.53.84.84,0,0,0,.59.13v.15l-.46.13-.49.16-.65.24s0,0,0,0a.13.13,0,0,1,0-.06v-.92a3.61,3.61,0,0,1-.7.68,1.71,1.71,0,0,1-1,.34,1.42,1.42,0,0,1-.93-.35,1.38,1.38,0,0,1-.45-1.16V34.78a.73.73,0,0,0-.19-.6,1.13,1.13,0,0,0-.53-.13v-.16Z" style="fill:#fff"/><path d="M99.3,34.16a1,1,0,0,1,.51.79.51.51,0,0,1-.13.35.47.47,0,0,1-.4.16.51.51,0,0,1-.35-.13.85.85,0,0,1-.22-.4l-.07-.27a.68.68,0,0,0-.25-.43.91.91,0,0,0-.49-.12,1.33,1.33,0,0,0-1.09.57,2.35,2.35,0,0,0-.45,1.5,2.57,2.57,0,0,0,.49,1.54,1.62,1.62,0,0,0,2.37.29,3.23,3.23,0,0,0,.59-.7l.16.1a4.2,4.2,0,0,1-.68,1.07,2.08,2.08,0,0,1-1.59.76,2.12,2.12,0,0,1-1.56-.69,2.63,2.63,0,0,1-.68-1.9,3,3,0,0,1,.74-2,2.38,2.38,0,0,1,1.88-.85A2,2,0,0,1,99.3,34.16Z" style="fill:#fff"/><path d="M103.88,33.91v.41h-1.16v3.26a2.18,2.18,0,0,0,.08.66.52.52,0,0,0,.53.39.68.68,0,0,0,.35-.1,1.8,1.8,0,0,0,.35-.31l.14.13-.12.17a2,2,0,0,1-.62.56,1.44,1.44,0,0,1-.64.16.89.89,0,0,1-.91-.59,2.64,2.64,0,0,1-.13-.9V34.32h-.62l0,0s0,0,0,0a.2.2,0,0,1,0-.09,1.19,1.19,0,0,1,.17-.14,5.08,5.08,0,0,0,.56-.53c.11-.13.39-.49.81-1.06h.09s0,0,0,.09v1.39Z" style="fill:#fff"/><path d="M105,39a1.43,1.43,0,0,0,.76-.21c.11-.1.16-.37.16-.81V35.25a1.58,1.58,0,0,0,0-.51.34.34,0,0,0-.36-.23h-.12l-.34.09v-.17l.24-.08c.66-.22,1.13-.38,1.39-.49a.57.57,0,0,1,.2-.07.28.28,0,0,1,0,.09V38a1.28,1.28,0,0,0,.16.81,1.14,1.14,0,0,0,.7.21v.16H105Zm.9-7.58a.54.54,0,0,1,.42-.18.6.6,0,0,1,.59.6.57.57,0,0,1-.17.41.61.61,0,0,1-.42.17.57.57,0,0,1-.42-.17.57.57,0,0,1-.17-.41A.57.57,0,0,1,105.86,31.4Z" style="fill:#fff"/><path d="M109.55,34.6a2.39,2.39,0,0,1,1.85-.78,2.52,2.52,0,0,1,1.85.74,2.61,2.61,0,0,1,.74,2,3,3,0,0,1-.71,2,2.34,2.34,0,0,1-1.85.83,2.4,2.4,0,0,1-1.84-.8,2.77,2.77,0,0,1-.76-2A2.7,2.7,0,0,1,109.55,34.6Zm.91-.15a2.33,2.33,0,0,0-.57,1.78,4,4,0,0,0,.46,1.89,1.38,1.38,0,0,0,1.26.87,1.07,1.07,0,0,0,1-.58,3,3,0,0,0,.35-1.53A4.07,4.07,0,0,0,112.5,35a1.37,1.37,0,0,0-1.27-.87A1.13,1.13,0,0,0,110.46,34.45Z" style="fill:#fff"/><path d="M115.13,39a1.1,1.1,0,0,0,.57-.2,1,1,0,0,0,.16-.68V35.23a1.25,1.25,0,0,0-.07-.51.45.45,0,0,0-.44-.21h-.11l-.13,0v-.2l1.1-.35.53-.18s.05,0,.05,0a.19.19,0,0,1,0,.08v.83a7,7,0,0,1,.82-.67,1.72,1.72,0,0,1,.91-.27,1.16,1.16,0,0,1,.7.22,1.73,1.73,0,0,1,.61,1.53V38.2a.87.87,0,0,0,.17.59.74.74,0,0,0,.54.19v.16h-2.42V39a1,1,0,0,0,.58-.23,1.17,1.17,0,0,0,.17-.75V35.58a1.62,1.62,0,0,0-.18-.81.72.72,0,0,0-.67-.32,1.18,1.18,0,0,0-.68.23,3.7,3.7,0,0,0-.49.43v3.17a.67.67,0,0,0,.18.55,1,1,0,0,0,.57.15v.16h-2.48Z" style="fill:#fff"/><polygon points="32.5 9.48 57.03 9.48 57.38 10.24 32.87 10.24 32.5 9.48" style="fill:#fff"/><polygon points="50.7 0.31 48.87 0.46 48.87 23.32 50.7 24.21 50.7 0.31" style="fill:#fff"/><path d="M32.92,23.25s8.67-2.51,6.56-19.86l1.92.86v8.17s-.34,8.4-7.61,11.2Z" style="fill:#fff"/><path d="M32.8,4.48S43.69,3,46.62.22l.92,2.23A37.19,37.19,0,0,1,33,5.08Z" style="fill:#fff"/><polygon points="0.53 0.2 12.88 0.2 13.23 0.96 0.9 0.96 0.53 0.2" style="fill:#fff"/><polygon points="5.97 3.26 10.07 3.26 10.42 4.02 6.34 4.02 5.97 3.26" style="fill:#fff"/><polygon points="13.08 1.6 23.85 1.6 24.2 2.35 13.45 2.35 13.08 1.6" style="fill:#fff"/><polygon points="5.97 5.83 10.07 5.83 10.42 6.59 6.34 6.59 5.97 5.83" style="fill:#fff"/><path d="M12,10.13C19.89,9.53,24.2,1.9,24.2,1.9L22.33.59c-5,8.5-10.61,9.19-10.61,9.19Z" style="fill:#fff"/><path d="M.53,9.24a77.81,77.81,0,0,0,9.05-.79s.34.17.05.32a31.1,31.1,0,0,1-8.16,2.49Z" style="fill:#fff"/><polygon points="2.96 0.52 4.79 0.67 4.79 9.87 2.96 9.87 2.96 0.52" style="fill:#fff"/><polygon points="9.33 0.52 11.16 0.67 11.16 10.26 9.33 11.15 9.33 0.52" style="fill:#fff"/><polygon points="13.54 12.44 11.71 12.59 11.71 23.33 13.54 24.22 13.54 12.44" style="fill:#fff"/><path d="M13.43,4s7.86,3.5,9.56,6.77L24.79,9S17.62,4.12,14,3.64C13.63,3.59,13.65,3.7,13.43,4Z" style="fill:#fff"/><path d="M2.59,13.81s12.63-1.7,15.56-4.43l.92,2.23a50.72,50.72,0,0,1-16.25,2.8Z" style="fill:#fff"/><path d="M.54,22.63h0C3.8,20.73,8,16.2,8,16.2L5.79,14.75C3.58,19.4,1.71,21,.19,22.25Z" style="fill:#fff"/><path d="M5.44,18.33A49.72,49.72,0,0,1,9,22l1.12-1.54A22.37,22.37,0,0,0,5.56,18Z" style="fill:#fff"/><path d="M14.48,22.63h0c3.23-1.89,7.38-6.42,7.38-6.42l-2.16-1.45c-2.21,4.65-4.08,6.26-5.59,7.5Z" style="fill:#fff"/><path d="M19.38,18.33A49.72,49.72,0,0,1,23,22l1.12-1.54A22.37,22.37,0,0,0,19.5,18Z" style="fill:#fff"/><path d="M71.66,4.08a7.08,7.08,0,0,0,4.6-1.46L76,1.17a13.81,13.81,0,0,1-4.28,2.74Z" style="fill:#fff"/><path d="M67.57,8.72S72.17,7.4,72.4.93L70.1,0S71,5.08,67.41,8.52Z" style="fill:#fff"/><path d="M68.16,1.63A13.82,13.82,0,0,1,65,5.68l2.1.67c1-1,1.17-3.62,1.2-4.41,0-.15,0-.24,0-.24Z" style="fill:#fff"/><path d="M66.51,8.69a13.77,13.77,0,0,1-3.13,4.05l2.1.67c1-1.05,1.17-3.62,1.21-4.41V8.76Z" style="fill:#fff"/><path d="M86.59,13.73A13.86,13.86,0,0,0,88,8.8l1.79,1.29c-.26,1.41-2.21,3.09-2.83,3.6a1.84,1.84,0,0,0-.18.15Z" style="fill:#fff"/><path d="M74,19.06a15.4,15.4,0,0,0,1.36-3.43c.16-.62,1.44-.15,1.44-.15l.57.41c-.26,1.41-2.4,2.63-3,3.13l-.19.15Z" style="fill:#fff"/><path d="M70.4,4.51A50,50,0,0,1,74,8.15l1.12-1.54A22.35,22.35,0,0,0,70.53,4.2Z" style="fill:#fff"/><path d="M82,4.08a7.12,7.12,0,0,0,4.61-1.46l-.32-1.45A13.81,13.81,0,0,1,82,3.91Z" style="fill:#fff"/><path d="M78.36,8.72S83,7.4,83.2.93L80.9,0s.91,5.08-2.7,8.52Z" style="fill:#fff"/><path d="M79,1.63a13.77,13.77,0,0,1-3.13,4.05l2.1.67c1-1,1.17-3.62,1.21-4.41,0-.15,0-.24,0-.24Z" style="fill:#fff"/><path d="M81.2,4.51a48.94,48.94,0,0,1,3.58,3.64L85.9,6.61A22.09,22.09,0,0,0,81.32,4.2Z" style="fill:#fff"/><polygon points="68.35 17.57 70.18 18.82 70.18 23.53 68.35 24.43 68.35 17.57" style="fill:#fff"/><polygon points="69.8 11.11 71.63 12.36 71.63 16.27 69.8 17.16 69.8 11.11" style="fill:#fff"/><polygon points="83.55 11.11 81.72 12.36 81.72 16.27 83.55 17.16 83.55 11.11" style="fill:#fff"/><polygon points="67.41 9.54 87.83 9.54 88.18 10.29 67.78 10.29 67.41 9.54" style="fill:#fff"/><polygon points="72.09 12.01 82.71 12.01 83.06 12.77 72.46 12.77 72.09 12.01" style="fill:#fff"/><polygon points="72.09 15.63 82.71 15.63 83.06 16.38 72.46 16.38 72.09 15.63" style="fill:#fff"/><polygon points="85.02 17.98 83.2 19.23 83.2 23.14 85.02 24.04 85.02 17.98" style="fill:#fff"/><polygon points="71.26 18.88 83.94 18.88 84.28 19.64 71.63 19.64 71.26 18.88" style="fill:#fff"/><polygon points="71.26 22.5 83.94 22.5 84.28 23.25 71.63 23.25 71.26 22.5" style="fill:#fff"/><path d="M98,1.76A13.92,13.92,0,0,1,101,6l1.28-1.85c-.72-1.26-3.16-2.22-3.93-2.5l-.23-.08Z" style="fill:#fff"/><path d="M96.29,6.74a14.12,14.12,0,0,1,3,4.27l1.28-1.85c-.73-1.26-3.17-2.22-3.93-2.5l-.23-.08Z" style="fill:#fff"/><path d="M100.29,19.44a14.14,14.14,0,0,1-4.94,1.68l1.41,1.74c1.41-.34,3-2.41,3.51-3.06l.14-.2Z" style="fill:#fff"/><polygon points="94.98 13.21 99.92 13.21 100.28 13.98 95.36 13.98 94.98 13.21" style="fill:#fff"/><polygon points="105.56 4.26 118.41 4.26 118.77 5.03 105.94 5.03 105.56 4.26" style="fill:#fff"/><polygon points="102.05 10.02 120.02 10.02 120.38 10.79 102.43 10.79 102.05 10.02" style="fill:#fff"/><polygon points="104.69 12.19 106.55 13.46 106.55 20.12 104.69 21.02 104.69 12.19" style="fill:#fff"/><polygon points="117.51 12.19 115.65 13.46 115.65 20.12 117.51 21.02 117.51 12.19" style="fill:#fff"/><polygon points="107.34 13.11 116.88 13.11 117.23 13.88 107.72 13.88 107.34 13.11" style="fill:#fff"/><polygon points="107.34 18.93 116.88 18.93 117.23 19.7 107.72 19.7 107.34 18.93" style="fill:#fff"/><path d="M102.66,9.08l0,0c2.88-2.49,6.19-7.8,6.19-7.8l-2.43-1c-1.35,5.07-2.92,7-4.21,8.56Z" style="fill:#fff"/><polygon points="112.14 0 110.28 0.16 110.28 10.28 112.14 10.48 112.14 0" style="fill:#fff"/><polygon points="100.57 12.07 98.7 12.77 98.7 21.06 100.57 21.51 100.57 12.07" style="fill:#fff"/><path d="M99.09,20.5s5.6,4.36,21.13,1l.33,2.44s-15.6,2.2-21.38-2.79Z" style="fill:#fff"/></svg>