<svg id="圖層_1" data-name="圖層 1" xmlns="http://www.w3.org/2000/svg" viewBox="0 0 431.9 327.37"><title>line3</title><path d="M273.53,327.37H198.62v-60.8h74.91c72.38,0,88.52-14.14,95.68-43.89a80.77,80.77,0,0,0,1.89-18.62v-52a73.34,73.34,0,0,0-1.84-18.21c-5.91-23.07-21.6-44.37-95.73-44.37H197.6C170.53,91.45,24.18,97.11,0,17.72L58.16,0c6.47,21.23,78,32.77,137.42,28.77l77.95-.07c32.53,0,131.53,0,154.62,90.06,2.56,9.94,3.75,20.53,3.75,33.32v52a139.2,139.2,0,0,1-3.58,32.83C406.56,327.37,320,327.37,273.53,327.37Z" style="fill:#e2bb3e"/><rect x="197.6" y="147.63" width="119.75" height="60.8" style="fill:#e2bb3e"/></svg>