<svg id="圖層_1" data-name="圖層 1" xmlns="http://www.w3.org/2000/svg" viewBox="0 0 431.9 327.37"><title>line11</title><path d="M158.37,0h74.91V60.8H158.37C86,60.8,69.86,75,62.7,104.69a80.18,80.18,0,0,0-1.9,18.62v52a73.29,73.29,0,0,0,1.85,18.21c5.9,23.07,21.59,44.37,95.72,44.37h75.94c27.06-2,173.41-7.61,197.59,71.78l-58.16,17.72c-6.46-21.23-78-32.76-137.42-28.77l-77.95.07c-32.52,0-131.53,0-154.62-90.06C1.2,198.68,0,188.08,0,175.29v-52A139.2,139.2,0,0,1,3.58,90.48C25.35,0,111.88,0,158.37,0Z" style="fill:#e2bb3e"/><rect x="114.56" y="118.93" width="119.75" height="60.8" style="fill:#fff"/></svg>