<svg id="圖層_1" data-name="圖層 1" xmlns="http://www.w3.org/2000/svg" viewBox="0 0 327.39 431.92"><title>line16</title><path d="M17.76,431.92,0,373.76c21.21-6.46,32.7-77.9,28.8-137.42l-.07-78c0-32.52,0-131.51,90-154.62A134,134,0,0,1,152.1,0h52a140.08,140.08,0,0,1,32.83,3.58c90.48,21.75,90.48,108.3,90.48,154.79v74.91h-60.8V158.37c0-72.37-14.15-88.53-43.87-95.65a79.36,79.36,0,0,0-18.64-1.91h-52a74.61,74.61,0,0,0-18.26,1.87c-23,5.91-44.3,21.58-44.3,95.69v75.95C91.42,261.39,97.13,407.67,17.76,431.92Z" style="fill:#fff"/></svg>