<svg id="圖層_1" data-name="圖層 1" xmlns="http://www.w3.org/2000/svg" viewBox="0 0 327.39 431.92"><title>line7</title><path d="M309.63,0l17.76,58.16c-21.21,6.47-32.7,77.9-28.8,137.42l.07,78c0,32.52,0,131.51-90,154.62a133.48,133.48,0,0,1-33.36,3.75h-52a140.08,140.08,0,0,1-32.83-3.58C0,406.59,0,320,0,273.55V198.64H60.8v74.91c0,72.38,14.15,88.53,43.87,95.66a79.9,79.9,0,0,0,18.64,1.91h52a74.61,74.61,0,0,0,18.26-1.88c23-5.91,44.3-21.58,44.3-95.69v-76C236,170.53,230.26,24.25,309.63,0Z" style="fill:#e2bb3e"/></svg>