<svg id="圖層_1" data-name="圖層 1" xmlns="http://www.w3.org/2000/svg" viewBox="0 0 243 65.74"><title>logo</title><path d="M29,24.17v1c0,.71,0,1.45,0,2.18a3.68,3.68,0,0,0,.13.75l.06.3,0,.21a.38.38,0,0,0,.57,0l.09-.14.08-.12a1,1,0,0,0,.22-.42l.05-.31a24.25,24.25,0,0,0,.53-5.79,3.22,3.22,0,0,0-2-3.1,5.47,5.47,0,0,0-1.45-.32,8.52,8.52,0,0,0-3.95.31.29.29,0,0,0-.08.46,2.87,2.87,0,0,0,2.19.74,15.66,15.66,0,0,1,1.74,0c.65,0,1.07.06,1.29.29a1.78,1.78,0,0,1,.27,1.24c0,.69,0,.71-.61.74-2.91.13-5.61.23-8.25.31-.7,0-1-.28-1.07-1a5.33,5.33,0,0,1,0-1c0-.23,0-.47.08-.71a12.49,12.49,0,0,1,.34-2.12,2.24,2.24,0,0,1,.93-1.11,3.63,3.63,0,0,1,1.53-.34c1.69-.11,3.41-.2,5.08-.29l2.19-.11h.18a3,3,0,0,0,.73-.09.74.74,0,0,0,.57-.5.58.58,0,0,0-.2-.58A1.93,1.93,0,0,0,28.69,14c-.91.1-1.83.16-2.72.23-.54,0-1.08.07-1.61.12a14.38,14.38,0,0,0-4.66,1,2.9,2.9,0,0,0-1.79,2.26c-.17,1.05-.35,2-.53,2.92a8.13,8.13,0,0,0,1.5,6.31,2,2,0,0,0,.78.66c1.74.93,3.56.7,5.32.47l.4-.05c.22,0,.34-.23.44-.39l.09-.14a.39.39,0,0,0-.08-.4l-.15-.1a.87.87,0,0,0-.51-.21c-.34,0-.68,0-1,0a9.89,9.89,0,0,1-1.54,0c-1.2-.13-2.24-.32-2.79-1.46a1.16,1.16,0,0,1-.12-.94.85.85,0,0,1,.65-.39,1.46,1.46,0,0,1,.5,0,2.24,2.24,0,0,0,.52,0c2.59-.11,4.77-.22,7-.35.29,0,.46,0,.54.09S29,23.91,29,24.17Z" style="fill:#2e488b"/><path d="M48,24c-.74-.77-1.56-1.55-2.68-2.51C44.83,21,44.81,21,45,20.4c0-.11.08-.21.12-.32a3.33,3.33,0,0,0,.29-1,12.72,12.72,0,0,0,0-2.21,2.3,2.3,0,0,0-2-2.19,19.32,19.32,0,0,0-5-.54H38a5.08,5.08,0,0,0-3.4.9c-.16.22-.13.38.07.48a5.18,5.18,0,0,0,1.42.34c1.38.08,2.76.14,4.15.21l2.49.13a.69.69,0,0,1,.76.58A6,6,0,0,1,42.9,20h0c-.16,0-.32-.07-.48-.12a19.76,19.76,0,0,0-7.93-.63,2.48,2.48,0,0,0-.76.28l-.29.13-.2.08c-.24.28-.26.52.09.71h.26a17.21,17.21,0,0,1,8.35,1.52l-.18.1c-.4.23-.78.45-1.17.63a17,17,0,0,1-5,1.46,2.14,2.14,0,0,0-1.78,1.14c-.08.27,0,.39.26.4l1.18-.08c.82-.06,1.59-.11,2.36-.21a9.73,9.73,0,0,0,5.11-1.91,4.72,4.72,0,0,1,.62-.4l.32-.19c.28-.17.42-.15.62.11.68.85,1.38,1.74,2.15,2.56a11.47,11.47,0,0,0,1.25,1.09l.56.45c.18.15.32.12.43-.1A2.57,2.57,0,0,0,48,24Z" style="fill:#2e488b"/><path d="M34.67,40.41c.36-.84.73-1.71,1.06-2.58a2.9,2.9,0,0,0-.63-3.45,3.84,3.84,0,0,1-.47-.51l-.33-.36a1.89,1.89,0,0,1-.54-1.66c.07-.41.17-.83.27-1.24s.16-.69.23-1a3.53,3.53,0,0,0,0-.73c0-.13,0-.26,0-.41s-.16-.41-.45-.21l-.22.19a2.2,2.2,0,0,0-.21.19A5.67,5.67,0,0,0,32,32.09a2.42,2.42,0,0,1-.82,1.72,16,16,0,0,0-1.74,1.87,2.27,2.27,0,0,0-.34.7c0,.09-.06.19-.1.28l-.09.22c-.1.51.12.6.59.35l.15-.1.29-.19c.21-.15.44-.3.65-.48l1.18-1.06.9-.82a.49.49,0,0,1,.43-.15.4.4,0,0,1,.28.25,3.94,3.94,0,0,1,.2,3.56,33.21,33.21,0,0,0-1.47,3.51,9.48,9.48,0,0,0,.24,7.77,6.49,6.49,0,0,0,2,2.47,1.42,1.42,0,0,0,.71.23.6.6,0,0,0,.3-.07,1,1,0,0,0,.34-1,6.7,6.7,0,0,0-.85-1.66l-.28-.35a4.31,4.31,0,0,1-1.09-2A9.46,9.46,0,0,1,34,42C34.22,41.48,34.45,40.94,34.67,40.41Z" style="fill:#2e488b"/><path d="M45.38,49.15a13.23,13.23,0,0,1-.65-1.68,5.53,5.53,0,0,1-.28-2.18,45.35,45.35,0,0,1,.87-5.1,6.86,6.86,0,0,0-.77-5.43,13.91,13.91,0,0,1-.75-1.44,1.4,1.4,0,0,1-.11-.53c0-1.2.09-2.47.16-3.78,0-.29.06-1-.66-1-.55,0-.92.32-1,.94,0,.35-.06.69-.09,1s-.06.64-.08.95a4.55,4.55,0,0,1-1,2.74c-.64.74-1.22,1.55-1.79,2.33l-.41.55a3.6,3.6,0,0,0-.33.61l-.14.29c-.06.21,0,.34.15.38a1.34,1.34,0,0,0,1.5-.35l2.08-2,.57-.54c.08.13.15.26.23.38.3.5.58,1,.82,1.47A2.41,2.41,0,0,1,44,38a14.4,14.4,0,0,1-.35,1.71c-.07.25-.13.51-.19.76s-.18.77-.27,1.15a20.07,20.07,0,0,0-.55,2.67,13.52,13.52,0,0,0,1,6.05,1.9,1.9,0,0,0,.4.69l0,.06a1.41,1.41,0,0,0,.94.56.87.87,0,0,0,.46-.14c.64-.4.36-1.1.21-1.47S45.51,49.45,45.38,49.15Z" style="fill:#2e488b"/><path d="M24.6,36.19a2.43,2.43,0,0,0-.2-.35,2.23,2.23,0,0,1-.28-1.72c.17-.82.32-1.65.47-2.46l.12-.63c.13-.7-.09-1.11-.66-1.22-.82-.16-1,.63-1.06.89l-.21.89a17.7,17.7,0,0,0-.51,2.61,2.85,2.85,0,0,1-1.39,2.25c-.76.53-1.53,1.12-2.29,1.75-.28.23-.87.72-.58,1.42a.42.42,0,0,0,.32.27,1.85,1.85,0,0,0,1.37-.48l2.36-1.92.78-.63.17.33a10.13,10.13,0,0,1,.62,1.35A3,3,0,0,1,23.87,40a22,22,0,0,1-.79,3.3,11.72,11.72,0,0,0,.46,8.23,1.36,1.36,0,0,0,.11.2c.29.44.59.66.89.66a.75.75,0,0,0,.39-.13A1.36,1.36,0,0,0,25.34,51a4,4,0,0,0-.27-.83,4.42,4.42,0,0,1-.22-.64c0-.22-.1-.44-.15-.67a6.72,6.72,0,0,1-.28-2.1,45.68,45.68,0,0,1,1-5.54,6,6,0,0,0-.64-4.77A2.85,2.85,0,0,1,24.6,36.19Z" style="fill:#2e488b"/><path d="M32.87,65.74A32.87,32.87,0,1,1,65.74,32.87,32.91,32.91,0,0,1,32.87,65.74Zm0-63.08A30.21,30.21,0,1,0,63.08,32.87,30.25,30.25,0,0,0,32.87,2.66Z" style="fill:#2e488b"/><path d="M88.57,59.21a2.26,2.26,0,0,0,1.06-.29,1.49,1.49,0,0,0,.25-1.05V51.26a1.56,1.56,0,0,0-.24-1,1.81,1.81,0,0,0-1.07-.3v-.28h7.9l0,2.13h-.38a2.09,2.09,0,0,0-.56-1.27,3.23,3.23,0,0,0-1.69-.29h-2c-.22,0-.36,0-.41.11a.73.73,0,0,0-.07.39V54h2.29a1.73,1.73,0,0,0,1.21-.28,2.33,2.33,0,0,0,.42-1.14h.35V56h-.35a2.55,2.55,0,0,0-.42-1.14,1.75,1.75,0,0,0-1.21-.28H91.39V58.3c0,.3.09.47.28.52a8.66,8.66,0,0,0,1.67.08,5.61,5.61,0,0,0,2.23-.33,3,3,0,0,0,1.3-1.6h.41l-.67,2.51h-8Z" style="fill:#2e488b"/><path d="M101.43,52.74V53a1.9,1.9,0,0,0-.54.12c-.1.05-.15.15-.15.32a.78.78,0,0,0,0,.22c0,.07.06.17.11.31l1.53,3.65,1.29-3.22.18-.5a1.72,1.72,0,0,0,.08-.4.42.42,0,0,0-.27-.41,1.88,1.88,0,0,0-.43-.09v-.22h2.06V53a.66.66,0,0,0-.51.24,4.88,4.88,0,0,0-.46.95l-2.1,5.23a1.84,1.84,0,0,1-.09.19.11.11,0,0,1-.1,0,.17.17,0,0,1-.13-.08l-.11-.21L99.6,54a2.15,2.15,0,0,0-.57-.88A1.14,1.14,0,0,0,98.5,53v-.22Z" style="fill:#2e488b"/><path d="M111.61,53.38a2.6,2.6,0,0,1,.77,2h-4.61a3.87,3.87,0,0,0,.76,2.45,2.18,2.18,0,0,0,2.92.37,4.05,4.05,0,0,0,1-1.13l.26.08a4.07,4.07,0,0,1-1.12,1.71,2.75,2.75,0,0,1-2,.79,2.45,2.45,0,0,1-2.11-1,4,4,0,0,1-.74-2.38,3.91,3.91,0,0,1,.86-2.52,2.8,2.8,0,0,1,2.25-1.06A2.57,2.57,0,0,1,111.61,53.38Zm-3.48.56a2.82,2.82,0,0,0-.33,1h3.06a2.79,2.79,0,0,0-.28-1.08,1.25,1.25,0,0,0-1.19-.64A1.39,1.39,0,0,0,108.13,53.94Z" style="fill:#2e488b"/><path d="M113.82,59.24a1.69,1.69,0,0,0,.89-.23,1,1,0,0,0,.21-.76V55a2.78,2.78,0,0,0-.13-1,.48.48,0,0,0-.49-.31.72.72,0,0,0-.19,0l-.25,0v-.24l.84-.29.6-.22.75-.31a.06.06,0,0,1,.06,0,.62.62,0,0,1,0,.16V54a5.45,5.45,0,0,1,.9-1,1.36,1.36,0,0,1,.9-.37.81.81,0,0,1,.6.23.71.71,0,0,1,.24.55.71.71,0,0,1-.18.5.57.57,0,0,1-.45.21.83.83,0,0,1-.55-.26.77.77,0,0,0-.44-.25c-.17,0-.38.13-.63.41a1.27,1.27,0,0,0-.37.84v3.28a1.12,1.12,0,0,0,.29.87,1.5,1.5,0,0,0,1,.22v.24h-3.58Z" style="fill:#2e488b"/><path d="M119.5,50.25V50c.56-.13,1-.27,1.5-.42a5.79,5.79,0,0,1,.71-.23.22.22,0,0,1,0,.08v4.43a2.19,2.19,0,0,1,.57-.66,2.35,2.35,0,0,1,3.36.35,3.53,3.53,0,0,1,.75,2.34,3.85,3.85,0,0,1-1,2.64,3.28,3.28,0,0,1-2.58,1.09,4,4,0,0,1-1.58-.32c-.52-.21-.78-.42-.78-.64V51a1.25,1.25,0,0,0-.11-.6q-.12-.18-.54-.18ZM122.27,59a2.78,2.78,0,0,0,.87.16,1.64,1.64,0,0,0,1.5-.76,3.3,3.3,0,0,0,.49-1.84,4.36,4.36,0,0,0-.46-2,1.53,1.53,0,0,0-1.47-.92,1.88,1.88,0,0,0-1,.32,1,1,0,0,0-.49.8v3.7A.73.73,0,0,0,122.27,59Z" style="fill:#2e488b"/><path d="M129.93,52.76v4.65a1.93,1.93,0,0,0,.14.79,1,1,0,0,0,1,.55,1.64,1.64,0,0,0,1-.33,2.49,2.49,0,0,0,.55-.5v-4a.91.91,0,0,0-.22-.73,1.55,1.55,0,0,0-.87-.21v-.24h2.35v5.11a.7.7,0,0,0,.93.84v.21l-.59.16-.63.2-.83.31a0,0,0,0,1-.05,0V58.32a5.07,5.07,0,0,1-.9.87,2.25,2.25,0,0,1-1.31.43,1.86,1.86,0,0,1-1.19-.45,1.77,1.77,0,0,1-.57-1.49V53.91a1,1,0,0,0-.24-.77,1.5,1.5,0,0,0-.69-.18v-.2Z" style="fill:#2e488b"/><path d="M136.1,59.28a1.94,1.94,0,0,0,1-.26c.14-.13.2-.48.2-1.05V54.51a2.38,2.38,0,0,0-.06-.65.44.44,0,0,0-.46-.3h-.15l-.44.12v-.23l.31-.1c.85-.27,1.44-.48,1.77-.62a1,1,0,0,1,.26-.09.36.36,0,0,1,0,.11V58c0,.56.06.9.2,1a1.48,1.48,0,0,0,.9.27v.2H136.1Zm1.16-9.71a.69.69,0,0,1,.53-.22.73.73,0,0,1,.54.22.7.7,0,0,1,.22.54.73.73,0,0,1-.22.53.77.77,0,0,1-.54.22.76.76,0,0,1-.53-1.29Z" style="fill:#2e488b"/><path d="M141,59.28a1.7,1.7,0,0,0,.92-.27,1.06,1.06,0,0,0,.24-.81V51.1a1.92,1.92,0,0,0-.08-.66.6.6,0,0,0-.59-.3l-.22,0-.3.07V50c.65-.18,1.44-.41,2.36-.7a.05.05,0,0,1,.06,0,.82.82,0,0,1,0,.19v8.71c0,.42.07.69.22.81a1.57,1.57,0,0,0,.9.24v.2H141Z" style="fill:#2e488b"/><path d="M150.06,52.85a2.7,2.7,0,0,1,.56.43V51a1.37,1.37,0,0,0-.1-.61c-.07-.12-.22-.17-.47-.17h-.15l-.29,0V50l.59-.16.66-.18.57-.18.39-.14,0,0,0,.76c0,.27,0,.56,0,.85s0,.58,0,.87v5.93a1.42,1.42,0,0,0,.11.66c.08.13.29.19.62.19h.16l.16,0v.24l-1.05.36-1.14.43,0-.06v-.9a3.79,3.79,0,0,1-.71.64,2.34,2.34,0,0,1-1.22.32,2.48,2.48,0,0,1-2-.95,3.45,3.45,0,0,1-.76-2.21,4.12,4.12,0,0,1,.92-2.71,2.8,2.8,0,0,1,2.25-1.13A2.13,2.13,0,0,1,150.06,52.85Zm.21,5.65a.93.93,0,0,0,.35-.63V54.76a1.59,1.59,0,0,0-.51-1.34,1.64,1.64,0,0,0-1-.38,1.58,1.58,0,0,0-1.42.81,3.66,3.66,0,0,0-.51,2,4,4,0,0,0,.54,2.08,1.76,1.76,0,0,0,1.61.92A1.25,1.25,0,0,0,150.27,58.5Z" style="fill:#2e488b"/><path d="M165.36,49.71a8.11,8.11,0,0,0,1,.24.75.75,0,0,0,.4-.12.62.62,0,0,0,.26-.36h.31l.14,3.34h-.34a4.78,4.78,0,0,0-.78-1.6,3,3,0,0,0-2.46-1.15,3.14,3.14,0,0,0-2.56,1.23,5.31,5.31,0,0,0-1,3.4,4.67,4.67,0,0,0,1,3.18A3.39,3.39,0,0,0,164,59.06a4.23,4.23,0,0,0,2.12-.56,6,6,0,0,0,1.23-.94l.28.28a5,5,0,0,1-1.23,1.09,4.88,4.88,0,0,1-2.71.8,4.93,4.93,0,0,1-3.81-1.53,5.05,5.05,0,0,1-1.3-3.54A5.11,5.11,0,0,1,160,51a4.9,4.9,0,0,1,3.76-1.55A6,6,0,0,1,165.36,49.71Z" style="fill:#2e488b"/><path d="M170.16,53.67a3.1,3.1,0,0,1,2.37-1,3.23,3.23,0,0,1,2.38.95,3.38,3.38,0,0,1,.94,2.51,3.73,3.73,0,0,1-.91,2.51,3,3,0,0,1-2.37,1.07,3.13,3.13,0,0,1-2.36-1,3.63,3.63,0,0,1-1-2.58A3.48,3.48,0,0,1,170.16,53.67Zm1.16-.18a3,3,0,0,0-.72,2.28,5.13,5.13,0,0,0,.58,2.41,1.8,1.8,0,0,0,1.63,1.12,1.37,1.37,0,0,0,1.25-.75,3.77,3.77,0,0,0,.44-2,5.11,5.11,0,0,0-.56-2.37,1.75,1.75,0,0,0-1.62-1.11A1.44,1.44,0,0,0,171.32,53.49Z" style="fill:#2e488b"/><path d="M177.32,59.28A1.28,1.28,0,0,0,178,59a1.21,1.21,0,0,0,.21-.86V54.47a1.69,1.69,0,0,0-.09-.65.57.57,0,0,0-.57-.27h-.13l-.17,0v-.25l1.41-.45.68-.23a.05.05,0,0,1,.06,0,.28.28,0,0,1,0,.1v1.07A6.74,6.74,0,0,1,180.5,53a2.12,2.12,0,0,1,1.17-.36,1.53,1.53,0,0,1,.9.29,2.23,2.23,0,0,1,.78,2v3.4a1.1,1.1,0,0,0,.21.75.88.88,0,0,0,.7.24v.2h-3.1v-.2a1.25,1.25,0,0,0,.74-.29,1.51,1.51,0,0,0,.21-1v-3.1a2.12,2.12,0,0,0-.23-1,.9.9,0,0,0-.85-.41,1.59,1.59,0,0,0-.87.29,4.78,4.78,0,0,0-.64.55v4.07a.83.83,0,0,0,.24.7,1.25,1.25,0,0,0,.73.19v.2h-3.17Z" style="fill:#2e488b"/><path d="M186,57.2h.23a4.29,4.29,0,0,0,.45,1.27,1.66,1.66,0,0,0,1.49.81A1.2,1.2,0,0,0,189,59a1,1,0,0,0,.31-.78,1.1,1.1,0,0,0-.18-.59,1.8,1.8,0,0,0-.64-.55l-.81-.47a4.84,4.84,0,0,1-1.32-1,1.72,1.72,0,0,1-.42-1.15,1.75,1.75,0,0,1,.58-1.34,2.15,2.15,0,0,1,1.46-.52,2.77,2.77,0,0,1,.85.15,4.88,4.88,0,0,0,.52.14.44.44,0,0,0,.19,0,.4.4,0,0,0,.1-.12h.17l.05,2h-.22a3.56,3.56,0,0,0-.39-1.1A1.46,1.46,0,0,0,188,53a1,1,0,0,0-1.09,1c0,.44.33.84,1,1.19l1,.52c1,.56,1.55,1.21,1.55,2a1.76,1.76,0,0,1-.65,1.4,2.48,2.48,0,0,1-1.67.54,4.27,4.27,0,0,1-1-.14,4.64,4.64,0,0,0-.65-.15.25.25,0,0,0-.16.06.56.56,0,0,0-.1.15H186Z" style="fill:#2e488b"/><path d="M195.54,52.79v.52h-1.48v4.18a3,3,0,0,0,.09.84.67.67,0,0,0,.68.5.85.85,0,0,0,.46-.12,2.79,2.79,0,0,0,.44-.39l.19.16-.16.21a2.31,2.31,0,0,1-.8.72,1.82,1.82,0,0,1-.82.21,1.14,1.14,0,0,1-1.16-.76,3.23,3.23,0,0,1-.16-1.15v-4.4H192l0,0a.14.14,0,0,1,0-.06.16.16,0,0,1,0-.11l.21-.19a5,5,0,0,0,.72-.67c.15-.17.5-.63,1-1.36h.11a.2.2,0,0,1,0,.11v1.79Z" style="fill:#2e488b"/><path d="M196.7,59.24a1.69,1.69,0,0,0,.89-.23,1,1,0,0,0,.21-.76V55a2.78,2.78,0,0,0-.13-1,.48.48,0,0,0-.49-.31.72.72,0,0,0-.19,0l-.25,0v-.24l.84-.29.61-.22c.24-.09.49-.2.74-.31,0,0,.06,0,.06,0a.62.62,0,0,1,0,.16V54a5.45,5.45,0,0,1,.9-1,1.36,1.36,0,0,1,.9-.37.85.85,0,0,1,.61.23.73.73,0,0,1,.23.55.71.71,0,0,1-.18.5.57.57,0,0,1-.45.21.85.85,0,0,1-.55-.26.77.77,0,0,0-.44-.25c-.17,0-.38.13-.62.41a1.24,1.24,0,0,0-.38.84v3.28a1.09,1.09,0,0,0,.3.87,1.45,1.45,0,0,0,1,.22v.24H196.7Z" style="fill:#2e488b"/><path d="M204.63,52.76v4.65a1.93,1.93,0,0,0,.14.79,1,1,0,0,0,1,.55,1.64,1.64,0,0,0,1-.33,2.49,2.49,0,0,0,.55-.5v-4a.91.91,0,0,0-.22-.73,1.55,1.55,0,0,0-.87-.21v-.24h2.35v5.11a.7.7,0,0,0,.93.84v.21l-.59.16-.63.2-.83.31a0,0,0,0,1,0,0V58.32a5.07,5.07,0,0,1-.9.87,2.25,2.25,0,0,1-1.31.43,1.86,1.86,0,0,1-1.19-.45,1.77,1.77,0,0,1-.57-1.49V53.91a1,1,0,0,0-.24-.77,1.5,1.5,0,0,0-.69-.18v-.2Z" style="fill:#2e488b"/><path d="M215.77,53.1a1.3,1.3,0,0,1,.66,1,.7.7,0,0,1-.17.44.61.61,0,0,1-.51.21.64.64,0,0,1-.45-.18,1,1,0,0,1-.28-.5l-.09-.35a.9.9,0,0,0-.32-.55,1.18,1.18,0,0,0-.63-.15,1.72,1.72,0,0,0-1.4.72A3.06,3.06,0,0,0,212,55.7a3.28,3.28,0,0,0,.63,2,2,2,0,0,0,1.69.87,2,2,0,0,0,1.35-.49,4.57,4.57,0,0,0,.75-.91l.2.13a5.47,5.47,0,0,1-.87,1.38,2.65,2.65,0,0,1-2,1,2.76,2.76,0,0,1-2-.89,3.33,3.33,0,0,1-.87-2.43,3.79,3.79,0,0,1,1-2.58,3.08,3.08,0,0,1,2.41-1.08A2.64,2.64,0,0,1,215.77,53.1Z" style="fill:#2e488b"/><path d="M221.64,52.79v.52h-1.48l0,4.18a2.9,2.9,0,0,0,.1.84.67.67,0,0,0,.68.5.85.85,0,0,0,.46-.12,3.33,3.33,0,0,0,.44-.39l.18.16-.16.21a2.28,2.28,0,0,1-.79.72,1.88,1.88,0,0,1-.82.21,1.14,1.14,0,0,1-1.16-.76,3.21,3.21,0,0,1-.17-1.15v-4.4h-.79l-.05,0a.07.07,0,0,1,0-.06.16.16,0,0,1,0-.11,1.58,1.58,0,0,1,.21-.19,6.38,6.38,0,0,0,.72-.67c.15-.17.5-.63,1-1.36h.12a.25.25,0,0,1,0,.11v1.79Z" style="fill:#2e488b"/><path d="M223,59.28a1.94,1.94,0,0,0,1-.26q.21-.2.21-1.05V54.51a2,2,0,0,0-.07-.65.43.43,0,0,0-.46-.3h-.15l-.44.12v-.23l.31-.1c.85-.27,1.44-.48,1.77-.62a1.08,1.08,0,0,1,.26-.09.36.36,0,0,1,0,.11V58c0,.56.06.9.2,1a1.48,1.48,0,0,0,.9.27v.2H223Zm1.16-9.71a.7.7,0,0,1,.54-.22.73.73,0,0,1,.53.22.7.7,0,0,1,.22.54.73.73,0,0,1-.22.53.77.77,0,0,1-.53.22.74.74,0,0,1-.54-.22.76.76,0,0,1,0-1.07Z" style="fill:#2e488b"/><path d="M228.9,53.67a3.1,3.1,0,0,1,2.37-1,3.23,3.23,0,0,1,2.38.95,3.38,3.38,0,0,1,.94,2.51,3.73,3.73,0,0,1-.91,2.51,3,3,0,0,1-2.37,1.07,3.13,3.13,0,0,1-2.36-1,3.63,3.63,0,0,1-1-2.58A3.48,3.48,0,0,1,228.9,53.67Zm1.16-.18a3,3,0,0,0-.72,2.28,5.13,5.13,0,0,0,.58,2.41,1.81,1.81,0,0,0,1.63,1.12,1.37,1.37,0,0,0,1.25-.75,3.77,3.77,0,0,0,.44-2,5.11,5.11,0,0,0-.56-2.37,1.75,1.75,0,0,0-1.62-1.11A1.44,1.44,0,0,0,230.06,53.49Z" style="fill:#2e488b"/><path d="M236.06,59.28a1.28,1.28,0,0,0,.72-.26,1.21,1.21,0,0,0,.21-.86V54.47a1.69,1.69,0,0,0-.09-.65.57.57,0,0,0-.57-.27h-.13l-.17,0v-.25l1.41-.45.68-.23a.05.05,0,0,1,.06,0,.28.28,0,0,1,0,.1v1.07a6.74,6.74,0,0,1,1.05-.86,2.12,2.12,0,0,1,1.17-.36,1.53,1.53,0,0,1,.9.29,2.23,2.23,0,0,1,.78,2v3.4a1.1,1.1,0,0,0,.21.75.88.88,0,0,0,.7.24v.2h-3.1v-.2a1.25,1.25,0,0,0,.74-.29,1.51,1.51,0,0,0,.21-1v-3.1a2.12,2.12,0,0,0-.23-1,.9.9,0,0,0-.85-.41,1.59,1.59,0,0,0-.87.29,4.78,4.78,0,0,0-.64.55v4.07a.83.83,0,0,0,.24.7,1.25,1.25,0,0,0,.73.19v.2h-3.17Z" style="fill:#2e488b"/><polygon points="130.2 21.5 161.63 21.5 162.08 22.46 130.68 22.46 130.2 21.5" style="fill:#2e488b"/><polygon points="153.52 9.74 151.18 9.94 151.18 39.22 153.52 40.36 153.52 9.74" style="fill:#2e488b"/><path d="M130.74,39.13s11.1-3.21,8.41-25.43l2.45,1.1V25.26S141.16,36,131.86,39.6Z" style="fill:#2e488b"/><path d="M130.59,15.09s13.95-2,17.7-5.46l1.18,2.86a47.75,47.75,0,0,1-18.58,3.36Z" style="fill:#2e488b"/><polygon points="89.24 9.61 105.06 9.61 105.51 10.58 89.72 10.58 89.24 9.61" style="fill:#2e488b"/><polygon points="96.22 13.53 101.46 13.53 101.91 14.5 96.69 14.5 96.22 13.53" style="fill:#2e488b"/><polygon points="105.32 11.4 119.12 11.4 119.56 12.37 105.8 12.37 105.32 11.4" style="fill:#2e488b"/><polygon points="96.22 16.82 101.46 16.82 101.91 17.79 96.69 17.79 96.22 16.82" style="fill:#2e488b"/><path d="M104,22.33c10.1-.78,15.61-10.54,15.61-10.54l-2.39-1.68C110.73,21,103.58,21.87,103.58,21.87Z" style="fill:#2e488b"/><path d="M89.24,21.19a99.89,99.89,0,0,0,11.6-1s.43.22.07.42a40.27,40.27,0,0,1-10.46,3.18Z" style="fill:#2e488b"/><polygon points="92.36 10.01 94.71 10.21 94.71 22 92.36 22 92.36 10.01" style="fill:#2e488b"/><polygon points="100.52 10.01 102.86 10.21 102.86 22.49 100.52 23.63 100.52 10.01" style="fill:#2e488b"/><polygon points="105.92 25.28 103.58 25.48 103.58 39.23 105.92 40.38 105.92 25.28" style="fill:#2e488b"/><path d="M105.77,14.5S115.84,19,118,23.17l2.31-2.32S111.14,14.62,106.5,14C106,14,106.06,14.09,105.77,14.5Z" style="fill:#2e488b"/><path d="M91.88,27s16.19-2.18,19.94-5.68L113,24.22a65,65,0,0,1-20.82,3.59Z" style="fill:#2e488b"/><path d="M89.26,38.33h0c4.14-2.42,9.46-8.22,9.46-8.22L96,28.25c-2.83,6-5.22,8-7.16,9.6Z" style="fill:#2e488b"/><path d="M95.53,32.83a62.55,62.55,0,0,1,4.59,4.66l1.44-2a28.9,28.9,0,0,0-5.86-3.08Z" style="fill:#2e488b"/><path d="M107.11,38.33h0c4.13-2.42,9.45-8.22,9.45-8.22l-2.77-1.85c-2.83,6-5.22,8-7.16,9.6Z" style="fill:#2e488b"/><path d="M113.39,32.83A62.55,62.55,0,0,1,118,37.49l1.44-2a28.86,28.86,0,0,0-5.87-3.08Z" style="fill:#2e488b"/><path d="M180.36,14.57a9.17,9.17,0,0,0,5.91-1.86l-.41-1.86a17.72,17.72,0,0,1-5.48,3.51Z" style="fill:#2e488b"/><path d="M175.12,20.52s5.9-1.69,6.2-10l-2.95-1.19s1.18,6.5-3.45,10.92Z" style="fill:#2e488b"/><path d="M175.89,11.44a17.66,17.66,0,0,1-4,5.19l2.69.85c1.25-1.34,1.5-4.63,1.55-5.65,0-.19,0-.31,0-.31Z" style="fill:#2e488b"/><path d="M173.76,20.48a17.55,17.55,0,0,1-4,5.19l2.69.85c1.24-1.34,1.5-4.62,1.54-5.64,0-.2,0-.31,0-.31Z" style="fill:#2e488b"/><path d="M199.49,26.93a17.58,17.58,0,0,0,1.79-6.31l2.28,1.66c-.33,1.8-2.83,4-3.62,4.6a2.71,2.71,0,0,1-.24.19Z" style="fill:#2e488b"/><path d="M183.31,33.77a19,19,0,0,0,1.74-4.4c.21-.8,1.85-.19,1.85-.19l.73.53c-.33,1.8-3.07,3.36-3.86,4l-.24.19Z" style="fill:#2e488b"/><path d="M178.76,15.13a64.72,64.72,0,0,1,4.59,4.66l1.44-2a28.58,28.58,0,0,0-5.87-3.09Z" style="fill:#2e488b"/><path d="M193.65,14.57a9.14,9.14,0,0,0,5.9-1.86l-.41-1.86a17.72,17.72,0,0,1-5.48,3.51Z" style="fill:#2e488b"/><path d="M189,20.52s5.89-1.69,6.19-10L192.2,9.35s1.17,6.5-3.45,10.92Z" style="fill:#2e488b"/><path d="M189.71,11.44a17.71,17.71,0,0,1-4,5.19l2.69.85c1.24-1.34,1.5-4.63,1.54-5.65,0-.19,0-.31,0-.31Z" style="fill:#2e488b"/><path d="M192.58,15.13a64.72,64.72,0,0,1,4.59,4.66l1.44-2a28.34,28.34,0,0,0-5.86-3.09Z" style="fill:#2e488b"/><polygon points="176.13 31.86 178.47 33.46 178.47 39.49 176.13 40.64 176.13 31.86" style="fill:#2e488b"/><polygon points="177.99 23.58 180.33 25.18 180.33 30.19 177.99 31.34 177.99 23.58" style="fill:#2e488b"/><polygon points="195.6 23.58 193.26 25.18 193.26 30.19 195.6 31.34 195.6 23.58" style="fill:#2e488b"/><polygon points="174.92 21.56 201.08 21.56 201.53 22.53 175.4 22.53 174.92 21.56" style="fill:#2e488b"/><polygon points="180.92 24.73 194.52 24.73 194.97 25.7 181.4 25.7 180.92 24.73" style="fill:#2e488b"/><polygon points="180.92 29.37 194.52 29.37 194.97 30.34 181.4 30.34 180.92 29.37" style="fill:#2e488b"/><polygon points="197.49 32.38 195.14 33.98 195.14 38.99 197.49 40.14 197.49 32.38" style="fill:#2e488b"/><polygon points="179.85 33.54 196.09 33.54 196.54 34.51 180.33 34.51 179.85 33.54" style="fill:#2e488b"/><polygon points="179.85 38.17 196.09 38.17 196.54 39.14 180.33 39.14 179.85 38.17" style="fill:#2e488b"/><path d="M214.06,11.6a17.92,17.92,0,0,1,3.84,5.47l1.64-2.36c-.93-1.62-4-2.85-5-3.21l-.29-.1Z" style="fill:#2e488b"/><path d="M211.91,18a18,18,0,0,1,3.85,5.47l1.64-2.36c-.93-1.62-4.05-2.85-5-3.21l-.3-.1Z" style="fill:#2e488b"/><path d="M217,34.25a18,18,0,0,1-6.33,2.15l1.81,2.23c1.81-.43,3.88-3.08,4.49-3.92l.18-.25Z" style="fill:#2e488b"/><polygon points="210.24 26.28 216.57 26.28 217.03 27.26 210.73 27.26 210.24 26.28" style="fill:#2e488b"/><polygon points="223.8 14.81 240.26 14.81 240.72 15.8 224.28 15.8 223.8 14.81" style="fill:#2e488b"/><polygon points="219.3 22.18 242.32 22.18 242.77 23.17 219.78 23.17 219.3 22.18" style="fill:#2e488b"/><polygon points="222.67 24.97 225.06 26.6 225.06 35.12 222.67 36.28 222.67 24.97" style="fill:#2e488b"/><polygon points="239.1 24.97 236.72 26.6 236.72 35.12 239.1 36.28 239.1 24.97" style="fill:#2e488b"/><polygon points="226.07 26.15 238.29 26.15 238.75 27.13 226.55 27.13 226.07 26.15" style="fill:#2e488b"/><polygon points="226.07 33.59 238.29 33.59 238.75 34.58 226.55 34.58 226.07 33.59" style="fill:#2e488b"/><path d="M220.07,21a.05.05,0,0,0,0,0c3.69-3.2,7.94-10,7.94-10l-3.12-1.34c-1.73,6.49-3.73,9-5.39,11Z" style="fill:#2e488b"/><polygon points="232.23 9.35 229.84 9.55 229.84 22.52 232.23 22.78 232.23 9.35" style="fill:#2e488b"/><polygon points="217.4 24.82 215.01 25.7 215.01 36.32 217.4 36.91 217.4 24.82" style="fill:#2e488b"/><path d="M215.51,35.62s7.17,5.57,27.07,1.28L243,40s-20,2.82-27.39-3.57Z" style="fill:#2e488b"/></svg>