<svg id="圖層_1" data-name="圖層 1" xmlns="http://www.w3.org/2000/svg" viewBox="0 0 632.7 907.03"><title>menuBg</title><path d="M333.1,213.14H317.6V180.7A15.65,15.65,0,0,0,302,165.06H272.45v-15.5H302A31.17,31.17,0,0,1,333.1,180.7Z" style="fill:#e2bb3e"/><path d="M315.05,93.57,286.7,49.44a15,15,0,0,0-11.83-5.71h-7.08V28.23h7.08a30.65,30.65,0,0,1,24.59,12.43l28.63,44.53Z" style="fill:#e2bb3e"/><rect x="299.22" y="419.41" width="15.5" height="14.99" style="fill:#e2bb3e"/><path d="M315.57,355.49a51.08,51.08,0,0,1-18.74-39.62v-50h15.5v50A35.59,35.59,0,0,0,325.4,343.5Z" style="fill:#e2bb3e"/><path d="M607.1,750H591.6V717.54A15.65,15.65,0,0,0,576,701.9H546.45V686.41H576a31.17,31.17,0,0,1,31.13,31.13Z" style="fill:#e2bb3e"/><path d="M321.57,895.84a51.06,51.06,0,0,1-18.74-39.62v-50h15.5v50a35.59,35.59,0,0,0,13.07,27.63Z" style="fill:#e2bb3e"/><path d="M580.45,468.6H559.73V453.1h20.72c5.54,0,11.73-7.92,11.73-19.29V422.53c0-11.37-6.19-19.3-11.73-19.3H550.61V387.74h29.84c15.27,0,27.23,15.28,27.23,34.79v11.28C607.68,453.32,595.72,468.6,580.45,468.6Z" style="fill:#e2bb3e"/><rect x="575.1" y="287.41" width="15.5" height="14.99" style="fill:#e2bb3e"/><rect x="569.35" y="147.34" width="15.51" height="90.19" transform="translate(62.39 516.71) rotate(-50.65)" style="fill:#e2bb3e"/><rect x="36.35" y="265.34" width="15.51" height="90.19" transform="translate(-223.92 147.72) rotate(-50.65)" style="fill:#e2bb3e"/><path d="M540.48,907,536,892.2c5.41-1.64,8.33-19.85,7.34-35l0-19.88c0-8.28,0-33.52,23-39.41a34.31,34.31,0,0,1,8.5-.95H588a35.91,35.91,0,0,1,8.37.91c23.06,5.54,23.06,27.61,23.06,39.45v19.1h-15.5V837.3c0-18.44-3.61-22.56-11.18-24.38a20.75,20.75,0,0,0-4.75-.48H574.73a19.57,19.57,0,0,0-4.66.47c-5.86,1.51-11.29,5.5-11.29,24.39v19.36C559.26,863.56,560.72,900.85,540.48,907Z" style="fill:#e2bb3e"/><rect x="446.53" y="672.73" width="15.51" height="90.19" transform="translate(-388.85 614.01) rotate(-50.65)" style="fill:#e2bb3e"/><path d="M592.33,109H573.24V93.48h19.09c18.45,0,22.56-3.6,24.39-11.18a20.75,20.75,0,0,0,.48-4.75V64.3a18.61,18.61,0,0,0-.47-4.64c-1.5-5.88-5.5-11.31-24.4-11.31H573c-6.9.5-44.2,1.94-50.37-18.3l14.83-4.51c1.64,5.41,19.88,8.35,35,7.33l19.87,0c8.29,0,33.53,0,39.41,23a33.46,33.46,0,0,1,1,8.49V77.55a35.91,35.91,0,0,1-.91,8.37C626.24,109,604.18,109,592.33,109Z" style="fill:#e2bb3e"/><rect x="572.98" y="63.17" width="30.52" height="15.5" style="fill:#e2bb3e"/><path d="M185.08,351.09H164.37V335.6h20.71c5.55,0,11.74-7.93,11.74-19.3V305c0-11.37-6.19-19.29-11.74-19.29H155.25v-15.5h29.83c15.28,0,27.24,15.28,27.24,34.79V316.3C212.32,335.81,200.36,351.09,185.08,351.09Z" style="fill:#e2bb3e"/><rect x="168.6" y="146.14" width="15.5" height="64.15" style="fill:#e2bb3e"/><rect x="179.8" y="389.3" width="15.51" height="90.19" transform="translate(-267.29 304.01) rotate(-50.65)" style="fill:#e2bb3e"/><path d="M169.06,113.37C158.85,98.55,149,77.23,163.45,43.71c9.61-22.28-5.41-29.26-6.06-29.54L163.69,0c10.3,4.58,26.48,20.89,14,49.86-11.35,26.32-4.72,41.85,4.14,54.72Z" style="fill:#e2bb3e"/><path d="M179.9,884.45H159.19V869H179.9c5.55,0,11.74-7.93,11.74-19.3V838.38c0-11.37-6.19-19.3-11.74-19.3H150.06v-15.5H179.9c15.27,0,27.23,15.29,27.23,34.8v11.27C207.13,869.16,195.17,884.45,179.9,884.45Z" style="fill:#e2bb3e"/><rect x="171.42" y="683.99" width="15.5" height="64.15" style="fill:#e2bb3e"/><path d="M47.06,774.74C36.85,759.93,27,738.61,41.45,705.09c9.61-22.28-5.41-29.26-6.06-29.54l6.3-14.17c10.3,4.57,26.48,20.89,14,49.86C44.33,737.56,51,753.09,59.82,766Z" style="fill:#e2bb3e"/><path d="M467.88,331h-15.5V298.58a15.65,15.65,0,0,0-15.63-15.64H407.23v-15.5h29.52a31.17,31.17,0,0,1,31.13,31.14Z" style="fill:#e2bb3e"/><path d="M59,620.63,30.63,576.51a15,15,0,0,0-11.83-5.72H11.71v-15.5H18.8a30.62,30.62,0,0,1,24.58,12.43L72,612.25Z" style="fill:#e2bb3e"/><path d="M398.49,123,394,108.2c5.41-1.65,8.34-19.86,7.34-35V53.3c0-8.29,0-33.52,22.94-39.41a33.81,33.81,0,0,1,8.5-1H446a35.83,35.83,0,0,1,8.37.92c23.06,5.54,23.06,27.6,23.06,39.45V72.39h-15.5V53.3c0-18.45-3.6-22.56-11.18-24.38a20.17,20.17,0,0,0-4.75-.49H432.73a18.92,18.92,0,0,0-4.65.48c-5.87,1.51-11.29,5.5-11.29,24.39V72.66C417.26,79.56,418.72,116.84,398.49,123Z" style="fill:#e2bb3e"/><path d="M454.84,469.06h-9.58A29.34,29.34,0,0,1,416,439.76V420.59a29.35,29.35,0,0,1,29.31-29.31h33v15.5h-33a13.82,13.82,0,0,0-13.81,13.81v19.17a13.82,13.82,0,0,0,13.81,13.8h9.58Z" style="fill:#e2bb3e"/><rect x="423.7" y="424.15" width="34.61" height="15.5" style="fill:#e2bb3e"/><rect x="438.94" y="149.14" width="15.5" height="64.15" style="fill:#e2bb3e"/><path d="M444.17,907c-10.21-14.82-20.07-36.14-5.61-69.66,9.61-22.28-5.41-29.26-6.06-29.54l6.3-14.17c10.3,4.58,26.48,20.89,14,49.86-11.35,26.32-4.72,41.85,4.14,54.72Z" style="fill:#e2bb3e"/><path d="M38.89,99.55H29.31A29.34,29.34,0,0,1,0,70.25V51.08A29.35,29.35,0,0,1,29.31,21.77h33v15.5h-33A13.83,13.83,0,0,0,15.5,51.08V70.25a13.82,13.82,0,0,0,13.81,13.8h9.58Z" style="fill:#e2bb3e"/><rect x="7.75" y="54.64" width="34.61" height="15.5" style="fill:#e2bb3e"/><path d="M10,490.69,5.49,475.87c5.4-1.65,8.33-19.86,7.34-35l0-19.87c0-8.29,0-33.52,22.94-39.41a33.92,33.92,0,0,1,8.5-1H57.5a35.79,35.79,0,0,1,8.37.91c23.06,5.55,23.06,27.61,23.06,39.46v19.09H73.44V421c0-18.45-3.61-22.57-11.19-24.38a20.11,20.11,0,0,0-4.75-.49H44.25a18.92,18.92,0,0,0-4.65.48c-5.86,1.5-11.29,5.5-11.29,24.39v19.36C28.79,447.22,30.24,484.51,10,490.69Z" style="fill:#e2bb3e"/><path d="M30.28,214.12l-9.09-12.54,22.37-16.22c4.66-3.39,7.42-8,7.76-12.89a16.39,16.39,0,0,0-5.38-12.94L56.7,148.39c7.16,6.91,10.74,15.85,10.09,25.16S61,191.86,52.66,197.9Z" style="fill:#e2bb3e"/><path d="M186.71,617.93h-9.58a29.34,29.34,0,0,1-29.31-29.31V569.46a29.35,29.35,0,0,1,29.31-29.32h33v15.5h-33a13.83,13.83,0,0,0-13.81,13.82v19.16a13.82,13.82,0,0,0,13.81,13.81h9.58Z" style="fill:#e2bb3e"/><rect x="155.57" y="573.02" width="34.61" height="15.5" style="fill:#e2bb3e"/><path d="M321.61,759.54H302.52V744h19.09c18.45,0,22.56-3.61,24.39-11.19a20.6,20.6,0,0,0,.48-4.74V714.86a18.61,18.61,0,0,0-.47-4.64c-1.51-5.88-5.5-11.31-24.4-11.31H302.26c-6.9.49-44.21,1.94-50.37-18.3l14.83-4.52c1.64,5.41,19.88,8.35,35,7.34l19.87,0c8.29,0,33.53,0,39.41,23a33.59,33.59,0,0,1,1,8.5v13.25a35.76,35.76,0,0,1-.91,8.36C355.52,759.54,333.46,759.54,321.61,759.54Z" style="fill:#e2bb3e"/><rect x="302.26" y="713.72" width="30.52" height="15.5" style="fill:#e2bb3e"/><path d="M19.74,885.23l-9.09-12.54L33,856.47c4.66-3.4,7.42-8,7.77-12.89a16.42,16.42,0,0,0-5.39-12.94L46.17,819.5c7.15,6.91,10.73,15.84,10.08,25.16S50.43,863,42.12,869Z" style="fill:#e2bb3e"/><path d="M326,568.54v1.39c0,1,0,2,0,3a4.18,4.18,0,0,0,.16,1c0,.14.07.27.09.41l.06.28a.5.5,0,0,0,.77,0l.12-.19.11-.16a1.34,1.34,0,0,0,.29-.57l.08-.42a33.52,33.52,0,0,0,.71-7.84c-.14-2.16-1-3.54-2.7-4.2a7.1,7.1,0,0,0-2-.44,11.6,11.6,0,0,0-5.34.42.39.39,0,0,0-.11.63,3.9,3.9,0,0,0,3,1,19.32,19.32,0,0,1,2.36-.07c.88,0,1.45.08,1.75.39a2.4,2.4,0,0,1,.37,1.69c0,.92,0,1-.83,1-3.95.18-7.6.32-11.18.43-.95,0-1.38-.38-1.45-1.36a7.37,7.37,0,0,1,0-1.33c0-.32.08-.64.11-1a17,17,0,0,1,.47-2.87,2.92,2.92,0,0,1,1.25-1.51,4.84,4.84,0,0,1,2.09-.46c2.29-.15,4.62-.27,6.87-.39l3-.16h.25a3.78,3.78,0,0,0,1-.12,1,1,0,0,0,.78-.67.81.81,0,0,0-.28-.79,2.63,2.63,0,0,0-2.26-1c-1.22.13-2.47.22-3.68.31-.72,0-1.45.1-2.18.17a19.68,19.68,0,0,0-6.31,1.34,3.91,3.91,0,0,0-2.43,3.06c-.24,1.43-.47,2.72-.72,4a11,11,0,0,0,2,8.55,2.83,2.83,0,0,0,1.06.9c2.35,1.26,4.82.94,7.21.63l.53-.06c.3,0,.46-.31.6-.53a1.4,1.4,0,0,1,.12-.18.57.57,0,0,0-.11-.56,1.22,1.22,0,0,1-.19-.12,1.31,1.31,0,0,0-.7-.3c-.46,0-.92,0-1.37,0a14.44,14.44,0,0,1-2.08,0c-1.63-.17-3-.44-3.79-2a1.56,1.56,0,0,1-.17-1.27,1.17,1.17,0,0,1,.89-.53,2,2,0,0,1,.67,0,4.17,4.17,0,0,0,.71.06c3.51-.17,6.46-.31,9.47-.49a1.09,1.09,0,0,1,.73.12A1,1,0,0,1,326,568.54Z" style="fill:#fff"/><path d="M351.8,568.27c-1-1-2.13-2.1-3.64-3.41-.69-.6-.72-.62-.43-1.43.06-.14.11-.29.17-.43a4.2,4.2,0,0,0,.39-1.35,16.92,16.92,0,0,0-.06-3,3.13,3.13,0,0,0-2.65-3,26.89,26.89,0,0,0-6.76-.74h-.56a6.88,6.88,0,0,0-4.62,1.23c-.21.3-.17.51.1.64a7.11,7.11,0,0,0,1.92.46c1.87.11,3.75.2,5.62.29l3.38.17c.44,0,1,.18,1,.79a8.08,8.08,0,0,1-.83,4.34h0l-.64-.16a26.94,26.94,0,0,0-10.75-.85,3.07,3.07,0,0,0-1,.37l-.39.19-.27.1c-.33.38-.35.71.13,1h.34a23.23,23.23,0,0,1,11.32,2.06l-.24.14c-.55.31-1.06.61-1.58.85a23.44,23.44,0,0,1-6.79,2,2.91,2.91,0,0,0-2.42,1.54c-.11.37,0,.53.35.55l1.6-.12c1.11-.07,2.16-.15,3.21-.28a13.13,13.13,0,0,0,6.91-2.58,5.92,5.92,0,0,1,.85-.55l.43-.25c.38-.24.57-.21.85.14.91,1.16,1.86,2.36,2.91,3.47a14.77,14.77,0,0,0,1.7,1.48c.25.21.51.41.75.62s.44.15.58-.14A3.48,3.48,0,0,0,351.8,568.27Z" style="fill:#fff"/><path d="M333.7,590.55c.48-1.13,1-2.31,1.43-3.49.73-1.94.45-3.47-.86-4.67a8.47,8.47,0,0,1-.63-.69c-.15-.17-.29-.34-.44-.5a2.53,2.53,0,0,1-.74-2.25c.09-.56.23-1.13.36-1.68s.23-.93.32-1.4a4,4,0,0,0,0-1c0-.17,0-.36,0-.57-.06-.36-.22-.55-.61-.27l-.3.25-.29.25a7.73,7.73,0,0,0-1.93,4.73,3.28,3.28,0,0,1-1.11,2.32,22.28,22.28,0,0,0-2.36,2.54,2.7,2.7,0,0,0-.46,1c-.05.13-.09.26-.14.38l-.12.3c-.14.7.16.82.8.48l.2-.14.38-.26a9.08,9.08,0,0,0,.89-.64l1.61-1.45,1.22-1.1a.66.66,0,0,1,.58-.21.55.55,0,0,1,.37.34,5.37,5.37,0,0,1,.28,4.83,40.35,40.35,0,0,0-2,4.76c-1.39,4-1.28,7.4.32,10.53a8.76,8.76,0,0,0,2.75,3.34,1.83,1.83,0,0,0,1,.31.74.74,0,0,0,.4-.09,1.31,1.31,0,0,0,.47-1.38,8.61,8.61,0,0,0-1.16-2.25l-.37-.48a5.78,5.78,0,0,1-1.48-2.73,12.81,12.81,0,0,1,.72-6.9C333.08,592,333.39,591.28,333.7,590.55Z" style="fill:#fff"/><path d="M348.22,602.41a19.21,19.21,0,0,1-.89-2.28,7.62,7.62,0,0,1-.37-3,58,58,0,0,1,1.18-6.91,9.29,9.29,0,0,0-1.05-7.36,16.26,16.26,0,0,1-1-1.95,1.66,1.66,0,0,1-.15-.72c.05-1.63.12-3.35.22-5.12,0-.4.07-1.32-.9-1.4a1.2,1.2,0,0,0-1.31,1.27c0,.47-.08.94-.13,1.41s-.08.86-.11,1.29a6.18,6.18,0,0,1-1.33,3.71c-.87,1-1.67,2.1-2.44,3.16l-.55.75a4.44,4.44,0,0,0-.45.83c-.06.13-.12.26-.19.39s0,.46.21.52a1.85,1.85,0,0,0,2-.48l2.82-2.65.77-.72.31.51c.4.68.79,1.32,1.11,2a3.2,3.2,0,0,1,.39,1.62,18.33,18.33,0,0,1-.47,2.32c-.09.35-.18.69-.25,1-.12.52-.25,1-.38,1.55a29.39,29.39,0,0,0-.74,3.62,18.42,18.42,0,0,0,1.4,8.21,2.68,2.68,0,0,0,.54.93l.07.08a1.94,1.94,0,0,0,1.27.76,1.11,1.11,0,0,0,.62-.19c.88-.54.5-1.49.29-2S348.4,602.81,348.22,602.41Z" style="fill:#fff"/><path d="M320,584.84a4.45,4.45,0,0,0-.26-.48,3,3,0,0,1-.39-2.33c.23-1.11.44-2.24.64-3.33l.16-.86c.18-.94-.12-1.5-.88-1.65-1.13-.21-1.37.85-1.45,1.2s-.19.81-.29,1.21a23.3,23.3,0,0,0-.68,3.54,3.84,3.84,0,0,1-1.89,3.05c-1,.72-2.07,1.52-3.11,2.37-.38.32-1.17,1-.78,1.93a.62.62,0,0,0,.43.37,2.58,2.58,0,0,0,1.87-.66l3.2-2.6,1.05-.85.23.44a15,15,0,0,1,.85,1.83,4.21,4.21,0,0,1,.32,2,30,30,0,0,1-1.07,4.47,15.78,15.78,0,0,0,.62,11.15,1.83,1.83,0,0,0,.14.28c.4.59.81.89,1.22.89a1,1,0,0,0,.53-.17,1.84,1.84,0,0,0,.55-1.64,5.32,5.32,0,0,0-.36-1.13,4.5,4.5,0,0,1-.3-.87l-.21-.9a8.94,8.94,0,0,1-.37-2.85,61.6,61.6,0,0,1,1.32-7.51,8.05,8.05,0,0,0-.87-6.46C320.18,585.12,320.11,585,320,584.84Z" style="fill:#fff"/><path d="M331.26,624.89a44.56,44.56,0,1,1,44.55-44.55A44.6,44.6,0,0,1,331.26,624.89Zm0-85.51a41,41,0,1,0,41,41A41,41,0,0,0,331.26,539.38Z" style="fill:#fff"/><path d="M390.85,614.61a2.85,2.85,0,0,0,1.49-.41c.23-.19.35-.68.35-1.47V603.4a2.15,2.15,0,0,0-.34-1.46,2.44,2.44,0,0,0-1.5-.43v-.39H402l.07,3h-.53a3,3,0,0,0-.8-1.8,4.47,4.47,0,0,0-2.37-.41H395.5q-.47,0-.57.15a.94.94,0,0,0-.11.56v4.68h3.24a2.52,2.52,0,0,0,1.71-.39,3.58,3.58,0,0,0,.59-1.62h.49v4.85h-.49a3.46,3.46,0,0,0-.6-1.61,2.42,2.42,0,0,0-1.7-.4h-3.24v5.19c0,.42.13.67.4.74a13.47,13.47,0,0,0,2.36.12,8,8,0,0,0,3.15-.47,4.32,4.32,0,0,0,1.82-2.26h.59l-.95,3.54H390.85Z" style="fill:#fff"/><path d="M409,605.49v.31a2.89,2.89,0,0,0-.75.17.44.44,0,0,0-.22.45,1,1,0,0,0,0,.31c0,.1.08.24.16.44l2.15,5.14,1.83-4.54c.08-.22.17-.46.25-.71a2.36,2.36,0,0,0,.12-.56.59.59,0,0,0-.38-.57,1.92,1.92,0,0,0-.62-.13v-.31h2.91v.31a1,1,0,0,0-.72.34,6.71,6.71,0,0,0-.64,1.34l-3,7.38a1.56,1.56,0,0,1-.14.27.17.17,0,0,1-.14.07.19.19,0,0,1-.17-.12c-.05-.08-.1-.18-.16-.29l-3.13-7.5a3,3,0,0,0-.81-1.24,1.78,1.78,0,0,0-.75-.25v-.31Z" style="fill:#fff"/><path d="M423.35,606.4a3.64,3.64,0,0,1,1.08,2.83h-6.5a5.38,5.38,0,0,0,1.08,3.45,3,3,0,0,0,2.3,1.08,2.87,2.87,0,0,0,1.81-.56,5.63,5.63,0,0,0,1.37-1.59l.35.12a5.81,5.81,0,0,1-1.57,2.41,3.92,3.92,0,0,1-2.82,1.11,3.47,3.47,0,0,1-3-1.46,5.56,5.56,0,0,1-1.05-3.35,5.46,5.46,0,0,1,1.22-3.55,3.91,3.91,0,0,1,3.18-1.49A3.6,3.6,0,0,1,423.35,606.4Zm-4.91.78a3.92,3.92,0,0,0-.47,1.39h4.32a4.1,4.1,0,0,0-.39-1.53,1.76,1.76,0,0,0-1.68-.9A2,2,0,0,0,418.44,607.18Z" style="fill:#fff"/><path d="M426.47,614.67a2.46,2.46,0,0,0,1.24-.34c.21-.16.31-.52.31-1.07v-4.62a3.9,3.9,0,0,0-.19-1.45.68.68,0,0,0-.69-.43,1.42,1.42,0,0,0-.27,0l-.35.07v-.34l1.19-.42c.41-.14.69-.24.85-.31.34-.13.69-.27,1.05-.44a.08.08,0,0,1,.09.06,1,1,0,0,1,0,.21v1.68a8.09,8.09,0,0,1,1.27-1.43,2,2,0,0,1,1.27-.51,1.22,1.22,0,0,1,.85.31,1.07,1.07,0,0,1,.33.79,1,1,0,0,1-.25.71.81.81,0,0,1-.63.28,1.15,1.15,0,0,1-.78-.35,1.13,1.13,0,0,0-.62-.36c-.24,0-.53.19-.89.58a1.79,1.79,0,0,0-.52,1.19v4.62a1.52,1.52,0,0,0,.41,1.22,2.1,2.1,0,0,0,1.37.33V615h-5Z" style="fill:#fff"/><path d="M434.48,602v-.35a17.51,17.51,0,0,0,2.11-.59,8.11,8.11,0,0,1,1-.32.5.5,0,0,1,0,.12v6.23a3.07,3.07,0,0,1,.79-.93,3.34,3.34,0,0,1,2.17-.76,3.23,3.23,0,0,1,2.57,1.27,4.93,4.93,0,0,1,1.06,3.29,5.39,5.39,0,0,1-1.38,3.72,4.64,4.64,0,0,1-3.64,1.55,5.81,5.81,0,0,1-2.23-.45c-.73-.3-1.1-.61-1.1-.9V603a1.63,1.63,0,0,0-.16-.85c-.11-.17-.36-.25-.76-.25Zm3.9,12.29a4.16,4.16,0,0,0,1.24.23,2.34,2.34,0,0,0,2.11-1.07,4.74,4.74,0,0,0,.69-2.6,6.24,6.24,0,0,0-.64-2.82,2.17,2.17,0,0,0-2.08-1.29,2.63,2.63,0,0,0-1.42.44,1.29,1.29,0,0,0-.69,1.13v5.22A1,1,0,0,0,438.38,614.26Z" style="fill:#fff"/><path d="M449.2,605.52v6.55a2.69,2.69,0,0,0,.19,1.12,1.42,1.42,0,0,0,1.4.78,2.37,2.37,0,0,0,1.36-.46,4.12,4.12,0,0,0,.77-.71v-5.61a1.3,1.3,0,0,0-.31-1,2.26,2.26,0,0,0-1.23-.3v-.34h3.31v7.21a1.38,1.38,0,0,0,.25,1,1.45,1.45,0,0,0,1.06.23v.28l-.83.24c-.18,0-.48.14-.89.28l-1.17.44s-.05,0-.06,0a.34.34,0,0,1,0-.11v-1.64a7,7,0,0,1-1.27,1.22,3.19,3.19,0,0,1-1.85.62,2.66,2.66,0,0,1-1.68-.63,2.56,2.56,0,0,1-.8-2.11v-5.32a1.34,1.34,0,0,0-.34-1.09,2.14,2.14,0,0,0-1-.25v-.28Z" style="fill:#fff"/><path d="M457.9,614.72a2.61,2.61,0,0,0,1.38-.38c.19-.18.28-.67.28-1.46V608a3.36,3.36,0,0,0-.08-.93.63.63,0,0,0-.65-.41h-.22l-.62.17v-.32l.44-.14c1.19-.39,2-.68,2.5-.88a1.29,1.29,0,0,1,.37-.12.68.68,0,0,1,0,.15v7.36a2.39,2.39,0,0,0,.28,1.46,2.06,2.06,0,0,0,1.28.38V615h-5Zm1.62-13.7a1,1,0,0,1,.76-.31,1,1,0,0,1,.76.31,1,1,0,0,1,.31.76,1,1,0,0,1-.31.74,1,1,0,0,1-.76.31,1,1,0,0,1-.76-.31,1,1,0,0,1-.3-.74A1.06,1.06,0,0,1,459.52,601Z" style="fill:#fff"/><path d="M464.8,614.72a2.48,2.48,0,0,0,1.29-.39,1.49,1.49,0,0,0,.33-1.14v-10a2.5,2.5,0,0,0-.11-.93.81.81,0,0,0-.83-.43l-.31,0-.42.1v-.34c.92-.25,2-.58,3.32-1,.06,0,.08,0,.09.06a1.31,1.31,0,0,1,0,.27v12.28a1.54,1.54,0,0,0,.3,1.15,2.41,2.41,0,0,0,1.28.34V615h-5Z" style="fill:#fff"/><path d="M477.59,605.65a3.21,3.21,0,0,1,.78.59V603a1.88,1.88,0,0,0-.13-.86c-.09-.16-.32-.24-.66-.24h-.22L477,602v-.34l.84-.22.92-.26c.31-.09.58-.17.82-.26a4.07,4.07,0,0,0,.53-.19l.07,0,0,1.07c0,.39,0,.79,0,1.2s0,.82,0,1.23l0,8.37a1.91,1.91,0,0,0,.16.93q.16.27.87.27h.23l.22,0v.33l-1.48.52-1.61.6-.08-.09v-1.26a5.6,5.6,0,0,1-1,.89,3.2,3.2,0,0,1-1.73.46,3.44,3.44,0,0,1-2.82-1.35,4.82,4.82,0,0,1-1.08-3.11,5.82,5.82,0,0,1,1.3-3.82,3.9,3.9,0,0,1,3.17-1.59A2.91,2.91,0,0,1,477.59,605.65Zm.29,8a1.28,1.28,0,0,0,.49-.89v-4.39a2.27,2.27,0,0,0-.7-1.89,2.37,2.37,0,0,0-1.4-.55,2.25,2.25,0,0,0-2,1.15,5.17,5.17,0,0,0-.72,2.81,5.75,5.75,0,0,0,.76,2.94,2.47,2.47,0,0,0,2.29,1.29A1.79,1.79,0,0,0,477.88,613.62Z" style="fill:#fff"/><path d="M499.18,601.21a11,11,0,0,0,1.34.34,1,1,0,0,0,.56-.16.82.82,0,0,0,.37-.52h.45l.19,4.72h-.48a6.71,6.71,0,0,0-1.1-2.26,4.21,4.21,0,0,0-3.47-1.62,4.41,4.41,0,0,0-3.6,1.74,7.41,7.41,0,0,0-1.41,4.79,6.52,6.52,0,0,0,1.48,4.48,4.73,4.73,0,0,0,3.72,1.68,5.94,5.94,0,0,0,3-.78,9.27,9.27,0,0,0,1.74-1.33l.38.39a7,7,0,0,1-1.73,1.55,7.43,7.43,0,0,1-9.19-1,7.1,7.1,0,0,1-1.83-5,7.27,7.27,0,0,1,1.94-5.14,6.92,6.92,0,0,1,5.3-2.19A8.83,8.83,0,0,1,499.18,601.21Z" style="fill:#fff"/><path d="M506,606.81a4.28,4.28,0,0,1,3.34-1.41,4.51,4.51,0,0,1,3.35,1.33,4.76,4.76,0,0,1,1.34,3.54,5.3,5.3,0,0,1-1.29,3.55,4.21,4.21,0,0,1-3.34,1.5,4.4,4.4,0,0,1-3.33-1.44,5.06,5.06,0,0,1-1.36-3.63A4.88,4.88,0,0,1,506,606.81Zm1.64-.27a4.19,4.19,0,0,0-1,3.22,7.24,7.24,0,0,0,.83,3.4,2.53,2.53,0,0,0,2.29,1.58,2,2,0,0,0,1.77-1.06,5.32,5.32,0,0,0,.62-2.76,7.27,7.27,0,0,0-.79-3.34A2.46,2.46,0,0,0,509,606,2,2,0,0,0,507.59,606.54Z" style="fill:#fff"/><path d="M516,614.72a1.93,1.93,0,0,0,1-.36,1.79,1.79,0,0,0,.29-1.22v-5.21a2.44,2.44,0,0,0-.12-.91.8.8,0,0,0-.8-.38h-.19l-.24,0v-.36c.28-.08.94-.3,2-.64l1-.31s.08,0,.09,0a.62.62,0,0,1,0,.15v1.5a10.63,10.63,0,0,1,1.47-1.2,3,3,0,0,1,1.66-.51,2.2,2.2,0,0,1,1.27.4,3.19,3.19,0,0,1,1.1,2.78v4.78a1.55,1.55,0,0,0,.3,1.07,1.28,1.28,0,0,0,1,.34V615h-4.37v-.28a1.71,1.71,0,0,0,1-.42,2.08,2.08,0,0,0,.3-1.35v-4.38a3.06,3.06,0,0,0-.32-1.46,1.26,1.26,0,0,0-1.21-.58,2.23,2.23,0,0,0-1.22.41,7.79,7.79,0,0,0-.9.78v5.73a1.21,1.21,0,0,0,.33,1,1.83,1.83,0,0,0,1,.27V615H516Z" style="fill:#fff"/><path d="M528.29,611.78h.34a5.33,5.33,0,0,0,.64,1.79,2.31,2.31,0,0,0,2.1,1.15,1.68,1.68,0,0,0,1.21-.43,1.47,1.47,0,0,0,.44-1.1,1.53,1.53,0,0,0-.26-.83,2.65,2.65,0,0,0-.9-.78l-1.14-.65a6.48,6.48,0,0,1-1.86-1.36,2.38,2.38,0,0,1-.59-1.62,2.44,2.44,0,0,1,.81-1.89,3,3,0,0,1,2.06-.73,3.91,3.91,0,0,1,1.2.2,5.88,5.88,0,0,0,.73.2.5.5,0,0,0,.27-.05.45.45,0,0,0,.14-.16h.25l.07,2.86h-.32a4.84,4.84,0,0,0-.55-1.55,2,2,0,0,0-1.84-1,1.45,1.45,0,0,0-1.53,1.48q0,.94,1.41,1.68l1.35.73c1.45.79,2.19,1.71,2.19,2.76a2.49,2.49,0,0,1-.91,2,3.54,3.54,0,0,1-2.37.77,5.4,5.4,0,0,1-1.39-.21,7.23,7.23,0,0,0-.92-.2.33.33,0,0,0-.22.09.7.7,0,0,0-.14.21h-.27Z" style="fill:#fff"/><path d="M541.75,605.56v.74h-2.09l0,5.9a3.78,3.78,0,0,0,.14,1.17.93.93,0,0,0,1,.71,1.21,1.21,0,0,0,.65-.17,3.94,3.94,0,0,0,.62-.55l.26.22-.22.31a3.18,3.18,0,0,1-1.13,1,2.53,2.53,0,0,1-1.15.3,1.6,1.6,0,0,1-1.63-1.08,4.3,4.3,0,0,1-.24-1.61V606.3h-1.12l-.08-.06a.24.24,0,0,1,0-.08.29.29,0,0,1,.05-.17l.29-.26a9.5,9.5,0,0,0,1-.94c.21-.25.7-.89,1.47-1.93.09,0,.14,0,.16,0s0,.06,0,.15v2.52Z" style="fill:#fff"/><path d="M543.38,614.67a2.55,2.55,0,0,0,1.26-.34,1.38,1.38,0,0,0,.3-1.07v-4.62a4.12,4.12,0,0,0-.19-1.45.68.68,0,0,0-.69-.43,1.42,1.42,0,0,0-.27,0l-.35.07v-.34l1.19-.42c.41-.14.69-.24.85-.31.34-.13.69-.27,1-.44a.08.08,0,0,1,.09.06s0,.1,0,.21v1.68a8.5,8.5,0,0,1,1.27-1.43,2,2,0,0,1,1.27-.51,1.22,1.22,0,0,1,.85.31,1.07,1.07,0,0,1,.33.79,1,1,0,0,1-.25.71.81.81,0,0,1-.63.28,1.15,1.15,0,0,1-.78-.35,1.16,1.16,0,0,0-.62-.36c-.24,0-.54.19-.88.58a1.72,1.72,0,0,0-.53,1.19v4.62a1.52,1.52,0,0,0,.41,1.22,2.08,2.08,0,0,0,1.37.33V615h-5.06Z" style="fill:#fff"/><path d="M554.58,605.52v6.55a2.69,2.69,0,0,0,.19,1.12,1.4,1.4,0,0,0,1.39.78,2.34,2.34,0,0,0,1.36-.46,3.83,3.83,0,0,0,.77-.71v-5.61a1.3,1.3,0,0,0-.3-1,2.26,2.26,0,0,0-1.23-.3v-.34h3.3v7.21a1.44,1.44,0,0,0,.25,1,1.5,1.5,0,0,0,1.07.23v.28c-.38.11-.66.18-.83.24l-.9.28-1.16.44s-.06,0-.06,0a.31.31,0,0,1,0-.11v-1.64a6.39,6.39,0,0,1-1.27,1.22,3.11,3.11,0,0,1-1.84.62,2.66,2.66,0,0,1-1.68-.63,2.56,2.56,0,0,1-.8-2.11v-5.32a1.3,1.3,0,0,0-.35-1.09,2,2,0,0,0-1-.25v-.28Z" style="fill:#fff"/><path d="M570.29,606a1.82,1.82,0,0,1,.93,1.45,1,1,0,0,1-.24.62.87.87,0,0,1-.72.3.93.93,0,0,1-.63-.25,1.39,1.39,0,0,1-.4-.72l-.12-.49a1.3,1.3,0,0,0-.46-.77,1.71,1.71,0,0,0-.9-.21,2.44,2.44,0,0,0-2,1,4.24,4.24,0,0,0-.8,2.71,4.65,4.65,0,0,0,.88,2.78,2.93,2.93,0,0,0,4.29.53,6.25,6.25,0,0,0,1.07-1.27l.28.18a7.73,7.73,0,0,1-1.23,1.94,3.74,3.74,0,0,1-2.86,1.38,3.84,3.84,0,0,1-2.83-1.26,4.69,4.69,0,0,1-1.23-3.42,5.32,5.32,0,0,1,1.35-3.65,4.3,4.3,0,0,1,3.38-1.53A3.77,3.77,0,0,1,570.29,606Z" style="fill:#fff"/><path d="M578.57,605.56v.74h-2.09l0,5.9a3.83,3.83,0,0,0,.13,1.17.94.94,0,0,0,1,.71,1.2,1.2,0,0,0,.64-.17,3.54,3.54,0,0,0,.62-.55l.27.22-.23.31a3.16,3.16,0,0,1-1.12,1,2.56,2.56,0,0,1-1.15.3,1.61,1.61,0,0,1-1.64-1.08,4.3,4.3,0,0,1-.24-1.61V606.3h-1.11l-.08-.06a.12.12,0,0,1,0-.08.29.29,0,0,1,0-.17l.29-.26a8.61,8.61,0,0,0,1-.94c.21-.25.7-.89,1.48-1.93.08,0,.14,0,.15,0s0,.06,0,.15v2.52Z" style="fill:#fff"/><path d="M580.51,614.72a2.62,2.62,0,0,0,1.39-.38,2.29,2.29,0,0,0,.29-1.46V608a2.85,2.85,0,0,0-.1-.93.61.61,0,0,0-.64-.41h-.22l-.62.17v-.32l.44-.14c1.2-.39,2-.68,2.5-.88a1.4,1.4,0,0,1,.37-.12.68.68,0,0,1,0,.15v7.36a2.39,2.39,0,0,0,.28,1.46,2.06,2.06,0,0,0,1.28.38V615h-5Zm1.64-13.7a1.07,1.07,0,0,1,1.51,0,1,1,0,0,1,.31.76,1,1,0,0,1-.31.74,1,1,0,0,1-.76.31,1.06,1.06,0,0,1-1.06-1.05A1,1,0,0,1,582.15,601Z" style="fill:#fff"/><path d="M588.81,606.81a4.31,4.31,0,0,1,3.34-1.41,4.55,4.55,0,0,1,3.36,1.33,4.79,4.79,0,0,1,1.33,3.54,5.3,5.3,0,0,1-1.29,3.55,4.21,4.21,0,0,1-3.34,1.5,4.41,4.41,0,0,1-3.33-1.44,5.06,5.06,0,0,1-1.36-3.63A4.88,4.88,0,0,1,588.81,606.81Zm1.64-.27a4.23,4.23,0,0,0-1,3.22,7.24,7.24,0,0,0,.83,3.4,2.53,2.53,0,0,0,2.3,1.58,2,2,0,0,0,1.76-1.06,5.32,5.32,0,0,0,.63-2.76,7.28,7.28,0,0,0-.8-3.34,2.47,2.47,0,0,0-2.29-1.57A2.07,2.07,0,0,0,590.45,606.54Z" style="fill:#fff"/><path d="M598.9,614.72a1.9,1.9,0,0,0,1-.36,1.74,1.74,0,0,0,.29-1.22v-5.21a2.44,2.44,0,0,0-.12-.91.79.79,0,0,0-.8-.38h-.19l-.24,0v-.36c.28-.08.94-.3,2-.64l1-.31c.05,0,.08,0,.09,0a.62.62,0,0,1,0,.15v1.5a10,10,0,0,1,1.48-1.2,3,3,0,0,1,1.65-.51,2.22,2.22,0,0,1,1.27.4,3.17,3.17,0,0,1,1.11,2.78v4.78a1.56,1.56,0,0,0,.29,1.07,1.32,1.32,0,0,0,1,.34V615h-4.38v-.28a1.71,1.71,0,0,0,1-.42,2.08,2.08,0,0,0,.3-1.35v-4.38a3,3,0,0,0-.32-1.46,1.25,1.25,0,0,0-1.2-.58,2.26,2.26,0,0,0-1.23.41,7.07,7.07,0,0,0-.89.78v5.73a1.18,1.18,0,0,0,.33,1,1.79,1.79,0,0,0,1,.27V615H598.9Z" style="fill:#fff"/><polygon points="449.53 561.09 493.83 561.09 494.46 562.46 450.2 562.46 449.53 561.09" style="fill:#fff"/><polygon points="482.4 544.52 479.1 544.8 479.1 586.07 482.4 587.68 482.4 544.52" style="fill:#fff"/><path d="M450.28,586s15.66-4.52,11.86-35.85l3.45,1.55V566.4s-.61,15.17-13.72,20.21Z" style="fill:#fff"/><path d="M450.07,552.06s19.68-2.77,25-7.7l1.66,4s-10.64,4.88-26.2,4.75Z" style="fill:#fff"/><polygon points="391.8 544.34 414.1 544.34 414.73 545.7 392.47 545.7 391.8 544.34" style="fill:#fff"/><polygon points="401.63 549.86 409.02 549.86 409.65 551.23 402.3 551.23 401.63 549.86" style="fill:#fff"/><polygon points="414.46 546.86 433.9 546.86 434.54 548.22 415.13 548.22 414.46 546.86" style="fill:#fff"/><polygon points="401.63 554.5 409.02 554.5 409.65 555.87 402.3 555.87 401.63 554.5" style="fill:#fff"/><path d="M412.53,562.27c14.23-1.1,22-14.86,22-14.86L431.16,545C422.08,560.38,412,561.62,412,561.62Z" style="fill:#fff"/><path d="M391.79,560.65a140.85,140.85,0,0,0,16.36-1.42s.6.31.09.58a56.44,56.44,0,0,1-14.74,4.49Z" style="fill:#fff"/><polygon points="396.2 544.91 399.5 545.19 399.5 561.8 396.2 561.8 396.2 544.91" style="fill:#fff"/><polygon points="407.69 544.91 410.99 545.19 410.99 562.49 407.69 564.1 407.69 544.91" style="fill:#fff"/><polygon points="415.3 566.43 412 566.71 412 586.1 415.3 587.71 415.3 566.43" style="fill:#fff"/><path d="M415.09,551.23s14.19,6.32,17.27,12.22l3.25-3.26s-12.95-8.79-19.48-9.64C415.45,550.46,415.5,550.66,415.09,551.23Z" style="fill:#fff"/><path d="M395.51,568.91s22.83-3.08,28.11-8l1.66,4a91.57,91.57,0,0,1-29.34,5Z" style="fill:#fff"/><path d="M391.82,584.82h.05c5.84-3.42,13.34-11.59,13.34-11.59l-3.91-2.61c-4,8.38-7.36,11.3-10.1,13.53Z" style="fill:#fff"/><path d="M400.66,577.07a90.24,90.24,0,0,1,6.47,6.56l2-2.78a40.4,40.4,0,0,0-8.27-4.35Z" style="fill:#fff"/><path d="M417,584.82h.06c5.83-3.42,13.33-11.59,13.33-11.59l-3.91-2.61c-4,8.38-7.36,11.3-10.1,13.53Z" style="fill:#fff"/><path d="M425.84,577.07c3,2.6,6.47,6.56,6.47,6.56l2-2.78a40.4,40.4,0,0,0-8.27-4.35Z" style="fill:#fff"/><path d="M520.24,551.33a12.87,12.87,0,0,0,8.32-2.62l-.58-2.62a24.9,24.9,0,0,1-7.72,4.94Z" style="fill:#fff"/><path d="M512.85,559.71s8.31-2.37,8.73-14.07L517.43,544s1.66,9.16-4.86,15.39Z" style="fill:#fff"/><path d="M513.93,546.91a24.89,24.89,0,0,1-5.65,7.32l3.79,1.2c1.76-1.89,2.11-6.52,2.18-8,0-.28,0-.44,0-.44Z" style="fill:#fff"/><path d="M510.94,559.66a24.89,24.89,0,0,1-5.65,7.32l3.79,1.2c1.76-1.89,2.11-6.52,2.18-8,0-.28,0-.44,0-.44Z" style="fill:#fff"/><path d="M547.2,568.76a25,25,0,0,0,2.52-8.9l3.22,2.33c-.47,2.54-4,5.58-5.1,6.49l-.34.28Z" style="fill:#fff"/><path d="M524.4,578.39a26.63,26.63,0,0,0,2.44-6.2c.3-1.12,2.62-.26,2.62-.26l1,.74c-.47,2.53-4.33,4.74-5.44,5.65l-.34.27Z" style="fill:#fff"/><path d="M518,552.12c2.95,2.6,6.47,6.56,6.47,6.56l2-2.78a40.69,40.69,0,0,0-8.27-4.34Z" style="fill:#fff"/><path d="M539,551.33a12.86,12.86,0,0,0,8.32-2.62l-.57-2.62A25,25,0,0,1,539,551Z" style="fill:#fff"/><path d="M532.34,559.71s8.31-2.37,8.73-14.07L536.92,544s1.66,9.16-4.86,15.39Z" style="fill:#fff"/><path d="M533.42,546.91a24.89,24.89,0,0,1-5.65,7.32l3.79,1.2c1.76-1.89,2.11-6.52,2.18-8,0-.28,0-.44,0-.44Z" style="fill:#fff"/><path d="M537.46,552.12a90.24,90.24,0,0,1,6.47,6.56l2-2.78a40.69,40.69,0,0,0-8.27-4.34Z" style="fill:#fff"/><polygon points="514.27 575.7 517.57 577.95 517.57 586.46 514.27 588.07 514.27 575.7" style="fill:#fff"/><polygon points="516.89 564.03 520.19 566.28 520.19 573.35 516.89 574.96 516.89 564.03" style="fill:#fff"/><polygon points="541.71 564.03 538.41 566.28 538.41 573.35 541.71 574.96 541.71 564.03" style="fill:#fff"/><polygon points="512.57 561.19 549.44 561.19 550.07 562.55 513.24 562.55 512.57 561.19" style="fill:#fff"/><polygon points="521.02 565.66 540.2 565.66 540.83 567.02 521.69 567.02 521.02 565.66" style="fill:#fff"/><polygon points="521.02 572.18 540.2 572.18 540.83 573.55 521.69 573.55 521.02 572.18" style="fill:#fff"/><polygon points="544.37 576.44 541.07 578.69 541.07 585.76 544.37 587.37 544.37 576.44" style="fill:#fff"/><polygon points="519.52 578.07 542.41 578.07 543.04 579.43 520.19 579.43 519.52 578.07" style="fill:#fff"/><polygon points="519.52 584.59 542.41 584.59 543.04 585.96 520.19 585.96 519.52 584.59" style="fill:#fff"/><path d="M567.73,547.15a25.38,25.38,0,0,1,5.43,7.7l2.3-3.33c-1.3-2.28-5.71-4-7.09-4.52l-.42-.14Z" style="fill:#fff"/><path d="M564.71,556.14a25.38,25.38,0,0,1,5.42,7.7l2.31-3.32c-1.31-2.28-5.71-4-7.09-4.52l-.42-.15Z" style="fill:#fff"/><path d="M571.94,579.06a25.36,25.36,0,0,1-8.92,3l2.54,3.15c2.56-.61,5.47-4.35,6.34-5.53l.25-.36Z" style="fill:#fff"/><polygon points="562.36 567.83 571.28 567.83 571.92 569.22 563.04 569.22 562.36 567.83" style="fill:#fff"/><polygon points="581.46 551.67 604.67 551.67 605.31 553.06 582.14 553.06 581.46 551.67" style="fill:#fff"/><polygon points="575.12 562.06 607.57 562.06 608.21 563.45 575.8 563.45 575.12 562.06" style="fill:#fff"/><polygon points="579.88 565.99 583.24 568.28 583.24 580.29 579.88 581.93 579.88 565.99" style="fill:#fff"/><polygon points="603.03 565.99 599.67 568.28 599.67 580.29 603.03 581.93 603.03 565.99" style="fill:#fff"/><polygon points="584.66 567.65 601.89 567.65 602.53 569.04 585.35 569.04 584.66 567.65" style="fill:#fff"/><polygon points="584.66 578.14 601.89 578.14 602.53 579.54 585.35 579.54 584.66 578.14" style="fill:#fff"/><path d="M576.21,560.37l.06,0c5.2-4.51,11.19-14.1,11.19-14.1l-4.4-1.88c-2.44,9.14-5.27,12.69-7.6,15.44Z" style="fill:#fff"/><polygon points="593.35 543.97 589.98 544.25 589.98 562.53 593.35 562.9 593.35 543.97" style="fill:#fff"/><polygon points="572.44 565.77 569.08 567.02 569.08 581.99 572.44 582.81 572.44 565.77" style="fill:#fff"/><path d="M569.78,581s10.1,7.86,38.15,1.81l.6,4.4s-28.18,4-38.61-5Z" style="fill:#fff"/></svg>