<svg id="圖層_1" data-name="圖層 1" xmlns="http://www.w3.org/2000/svg" viewBox="0 0 327.37 431.9"><title>line23</title><path d="M327.37,158.37v74.91h-60.8V158.37c0-72.37-14.14-88.51-43.89-95.67a80.18,80.18,0,0,0-18.62-1.9h-52a73.29,73.29,0,0,0-18.21,1.85C110.8,68.55,89.5,84.24,89.5,158.37v75.94c2,27.06,7.61,173.41-71.78,197.59L0,373.74c21.23-6.46,32.77-78,28.77-137.42l-.07-77.95c0-32.52,0-131.53,90.06-154.62C128.7,1.2,139.29,0,152.08,0h52a139.2,139.2,0,0,1,32.83,3.58C327.37,25.35,327.37,111.88,327.37,158.37Z" style="fill:#fff"/><rect x="147.63" y="114.56" width="60.8" height="119.75" style="fill:#2e488e"/></svg>