<svg id="圖層_1" data-name="圖層 1" xmlns="http://www.w3.org/2000/svg" viewBox="0 0 25.94 25.94"><title>mail</title><path d="M17.28,7.43H8.66A2.72,2.72,0,0,0,6,10.14V15.8a2.71,2.71,0,0,0,2.71,2.71h8.62A2.71,2.71,0,0,0,20,15.8V10.14A2.71,2.71,0,0,0,17.28,7.43ZM8.66,8.65h8.62a1.46,1.46,0,0,1,1.28.78l-4.83,3.48a1.28,1.28,0,0,1-1.51,0L7.38,9.42A1.49,1.49,0,0,1,8.66,8.65Zm8.62,8.64H8.66A1.49,1.49,0,0,1,7.17,15.8v-5l4.34,3.13a2.51,2.51,0,0,0,1.46.47,2.54,2.54,0,0,0,1.47-.47l4.33-3.13v5A1.49,1.49,0,0,1,17.28,17.29Z" style="fill:#fff"/><path d="M13,25.94a13,13,0,1,1,13-13A13,13,0,0,1,13,25.94ZM13,1.22A11.75,11.75,0,1,0,24.72,13,11.76,11.76,0,0,0,13,1.22Z" style="fill:#fff"/></svg>