<svg id="圖層_1" data-name="圖層 1" xmlns="http://www.w3.org/2000/svg" viewBox="0 0 25.94 25.94"><title>map</title><path d="M13,4.73a5.57,5.57,0,0,0-5.56,5.56C7.41,13,9.66,21.21,13,21.21s5.56-8.2,5.56-10.92A5.57,5.57,0,0,0,13,4.73ZM13,20c-2.07,0-4.34-6.81-4.34-9.7a4.34,4.34,0,0,1,8.68,0C17.31,13.18,15,20,13,20Z" style="fill:#fff"/><path d="M13,7.78a3.06,3.06,0,1,0,3,3.06A3.06,3.06,0,0,0,13,7.78Zm0,4.89a1.84,1.84,0,1,1,1.83-1.83A1.83,1.83,0,0,1,13,12.67Z" style="fill:#fff"/><path d="M13,25.94a13,13,0,1,1,13-13A13,13,0,0,1,13,25.94ZM13,1.22A11.75,11.75,0,1,0,24.72,13,11.76,11.76,0,0,0,13,1.22Z" style="fill:#fff"/></svg>