<svg id="圖層_1" data-name="圖層 1" xmlns="http://www.w3.org/2000/svg" viewBox="0 0 25.94 25.94"><title>print</title><path d="M18.09,10.72h.52A1.6,1.6,0,0,1,20,12a2,2,0,0,1,0,.34v3.79a1.57,1.57,0,0,1-.62,1.29,1.55,1.55,0,0,1-1,.34h-.32v1.13a1.53,1.53,0,0,1-1.31,1.54,3,3,0,0,1-.52,0H10.49A1.51,1.51,0,0,1,9,19.28a2.09,2.09,0,0,1,0-.36V17.78H8.58A1.58,1.58,0,0,1,7,16.51a3.6,3.6,0,0,1,0-.66V12.32a1.61,1.61,0,0,1,1.26-1.57,3.6,3.6,0,0,1,.66,0,.33.33,0,0,1,.1,0V8.3a1.63,1.63,0,0,1,1.18-1.58,1.7,1.7,0,0,1,.46-.06h5.83A1.64,1.64,0,0,1,18.09,8.3v2.42ZM9,17.17V14.41c0-.08,0-.11.1-.11h9v2.87h.3a1,1,0,0,0,1-1v-3.8a1,1,0,0,0-1-1H8.56a1,1,0,0,0-1,1q0,1.93,0,3.87a1,1,0,0,0,.49.86A1.55,1.55,0,0,0,9,17.17Zm.56-2.31v1.65c0,.81,0,1.61,0,2.42a1,1,0,0,0,1,1c2,0,4,0,6,0a1,1,0,0,0,1-1V14.86Zm8-4.16V8.27a.86.86,0,0,0,0-.16,1,1,0,0,0-1-.85H10.64a1,1,0,0,0-1,1.05V10.7Z" transform="translate(-0.75 -0.75)" style="fill:#fff"/><path d="M10.49,20.63a1.68,1.68,0,0,1-1.7-1.71c0-.26,0-.52,0-.78v-.2h-.2a1.74,1.74,0,0,1-1.74-1.39,3.44,3.44,0,0,1,0-.64V12.32a1.75,1.75,0,0,1,1.39-1.73,4.46,4.46,0,0,1,.63-.05V8.3a1.79,1.79,0,0,1,1.29-1.74,2,2,0,0,1,.5-.07h5.84a1.78,1.78,0,0,1,1.8,1.81v2.25h0a1.45,1.45,0,0,1,.36,0A1.76,1.76,0,0,1,20.16,12a2.31,2.31,0,0,1,0,.37v3.79a1.73,1.73,0,0,1-.69,1.42,1.66,1.66,0,0,1-1.07.37h-.18v1a1.67,1.67,0,0,1-1.44,1.7,1,1,0,0,1-.41,0ZM8.93,10.87h0a4.09,4.09,0,0,0-.63,0,1.42,1.42,0,0,0-1.13,1.41v3.6a2.59,2.59,0,0,0,0,.56,1.41,1.41,0,0,0,1.41,1.13h.54v.53q0,.39,0,.78a1.69,1.69,0,0,0,0,.33,1.36,1.36,0,0,0,1.34,1.06H16.4c.12,0,.25,0,.36,0a1.35,1.35,0,0,0,1.16-1.37v-1.3h.51a1.34,1.34,0,0,0,.86-.3,1.37,1.37,0,0,0,.56-1.16c0-1.26,0-2.53,0-3.79a1.62,1.62,0,0,0,0-.31,1.43,1.43,0,0,0-1.24-1.16h-.67V8.3a1.46,1.46,0,0,0-1.47-1.48H10.62a1.68,1.68,0,0,0-.41.06A1.45,1.45,0,0,0,9.15,8.3v2.57Zm5.59,9.21h-4a1.13,1.13,0,0,1-1.17-1.15V14.7H17.7v4.22a1.14,1.14,0,0,1-1.16,1.16ZM9.67,15v3.9a.79.79,0,0,0,.84.82h6a.8.8,0,0,0,.83-.83V15Zm-1,2.31a1.21,1.21,0,0,1-.7-.17,1.13,1.13,0,0,1-.57-1V12.3a1.16,1.16,0,0,1,1.15-1.15h9.83a1.16,1.16,0,0,1,1.19,1.2v3.8a1.16,1.16,0,0,1-1.19,1.18h-.47V14.47H9.11c0,.65,0,1.28,0,1.92v.94H8.68Zm-.12-5.86a.83.83,0,0,0-.82.82v3.87a.81.81,0,0,0,.41.72,1.19,1.19,0,0,0,.63.12V14.4a.24.24,0,0,1,.27-.26h9.2V17h.14a.82.82,0,0,0,.85-.85v-3.8a.82.82,0,0,0-.85-.87Zm8.91-.61h-8V8.31A1.18,1.18,0,0,1,10.64,7.1h5.78a1.18,1.18,0,0,1,1.2,1,.62.62,0,0,1,0,.19v2.38l0,.2Zm-7.71-.33h7.55V8.27a.57.57,0,0,0,0-.13.87.87,0,0,0-.88-.71H10.64a.85.85,0,0,0-.88.88Z" transform="translate(-0.75 -0.75)" style="fill:#fff"/><path d="M9.59,12.66h.53c.07,0,.1,0,.1.1a4.34,4.34,0,0,0,0,.51c0,.07,0,.1-.1.1H9.06c-.07,0-.1,0-.1-.1a4.51,4.51,0,0,0,0-.52c0-.07,0-.09.1-.09Z" transform="translate(-0.75 -0.75)" style="fill:#fff"/><path d="M10.12,13.53H9.06a.24.24,0,0,1-.19-.07.26.26,0,0,1-.07-.2v-.51a.25.25,0,0,1,.07-.19.21.21,0,0,1,.18-.07h1.06a.25.25,0,0,1,.2.07.24.24,0,0,1,.07.19v.52A.24.24,0,0,1,10.12,13.53Zm-.54-.33h.47v-.37H9.13v.38Z" transform="translate(-0.75 -0.75)" style="fill:#fff"/><path d="M13.55,18.51H10.91a.29.29,0,0,1-.31-.32.28.28,0,0,1,.23-.24h5.36a.28.28,0,0,1,.29.19.27.27,0,0,1-.28.36H13.55Z" transform="translate(-0.75 -0.75)" style="fill:#fff"/><path d="M16,18.67H10.91a.47.47,0,0,1-.37-.16.41.41,0,0,1-.11-.34.44.44,0,0,1,.38-.38h5.38a.44.44,0,0,1,.45.29.44.44,0,0,1-.05.4.47.47,0,0,1-.38.19Zm-5.07-.55h0a.12.12,0,0,0-.1.09.13.13,0,0,0,0,.08.17.17,0,0,0,.13.05H16.2a.11.11,0,0,0,.11-.06s0,0,0-.09,0-.07-.13-.07h-5.3Z" transform="translate(-0.75 -0.75)" style="fill:#fff"/><path d="M13.54,16.81H10.91a.27.27,0,0,1-.31-.29.28.28,0,0,1,.3-.27h5.28a.28.28,0,0,1,.31.23.27.27,0,0,1-.23.32H13.54Z" transform="translate(-0.75 -0.75)" style="fill:#fff"/><path d="M16.15,17H10.91a.47.47,0,0,1-.36-.14.43.43,0,0,1-.12-.31.44.44,0,0,1,.46-.43h5.29a.44.44,0,0,1,.47.35.44.44,0,0,1-.07.35.45.45,0,0,1-.3.18Zm-5.26-.55a.12.12,0,0,0-.13.11.12.12,0,0,0,0,.07.17.17,0,0,0,.13,0h5.33a.14.14,0,0,0,.07,0,.15.15,0,0,0,0-.09s0-.09-.15-.09Z" transform="translate(-0.75 -0.75)" style="fill:#fff"/><path d="M13.72,26.69a13,13,0,1,1,13-13A13,13,0,0,1,13.72,26.69ZM13.72,2A11.75,11.75,0,1,0,25.47,13.72,11.76,11.76,0,0,0,13.72,2Z" transform="translate(-0.75 -0.75)" style="fill:#fff"/></svg>