<svg id="圖層_1" data-name="圖層 1" xmlns="http://www.w3.org/2000/svg" viewBox="0 0 25.94 25.94"><title>tel</title><path d="M17,20a5.55,5.55,0,0,1-1.75-.37l-.28-.1a10.9,10.9,0,0,1-2-.89,14.3,14.3,0,0,1-3.17-2.72A9.81,9.81,0,0,1,8,13.23c-.25-.58-.49-1.23-.74-2a3.92,3.92,0,0,1,.45-3.36,2.61,2.61,0,0,1,2-1.33c.82-.09,1.08,0,1.48.74s.78,1.37,1.18,2a1,1,0,0,1-.16,1.46c-.17.17-.35.32-.53.47l-.28.24c-.14.12-.27.25-.39.37.22.37.41.72.63,1.06a8.1,8.1,0,0,0,2.91,2.75l.61.35.72-.78a4.07,4.07,0,0,1,.4-.43,1,1,0,0,1,1.43-.14l2.4,1.4a.87.87,0,0,1,.43.83,3.76,3.76,0,0,1-.35,1.43,2,2,0,0,1-.58.67A4.1,4.1,0,0,1,17,20ZM10.12,7.5l-.3,0a1.61,1.61,0,0,0-1.27.84,2.94,2.94,0,0,0-.36,2.54c.24.73.47,1.35.71,1.91a8.79,8.79,0,0,0,1.65,2.41,13.51,13.51,0,0,0,2.95,2.53,9.58,9.58,0,0,0,1.84.81l.29.11A4,4,0,0,0,17,19h0A3.23,3.23,0,0,0,19,18.25a1.33,1.33,0,0,0,.32-.34,2.58,2.58,0,0,0,.24-1.05L19,16.63l-1.85-1.08a.8.8,0,0,0-.14-.08l-.1.09a3.61,3.61,0,0,0-.33.35l-.68.79a1,1,0,0,1-1.27.21L14,16.56a9.08,9.08,0,0,1-3.27-3.09c-.22-.35-.43-.72-.63-1.09a.94.94,0,0,1,.15-1.22l.42-.39.31-.26a6.2,6.2,0,0,0,.46-.42l.1-.1s0-.06-.09-.14c-.4-.68-.8-1.37-1.19-2.06A2.45,2.45,0,0,0,10.12,7.5Z" transform="translate(-0.75 -0.45)" style="fill:#fff"/><path d="M13.72,26.39a13,13,0,1,1,13-13A13,13,0,0,1,13.72,26.39Zm0-24.72A11.75,11.75,0,1,0,25.47,13.42,11.76,11.76,0,0,0,13.72,1.67Z" transform="translate(-0.75 -0.45)" style="fill:#fff"/></svg>