<svg id="圖層_1" data-name="圖層 1" xmlns="http://www.w3.org/2000/svg" viewBox="0 0 17.87 17.87"><title>faxicon</title><path d="M12.32,6.65c.12,0,.24,0,.36,0a1.09,1.09,0,0,1,1,.89,1.94,1.94,0,0,1,0,.24v2.61a1.1,1.1,0,0,1-1.11,1.12h-.22v.78a1,1,0,0,1-.9,1.06,2.17,2.17,0,0,1-.36,0h-4a1,1,0,0,1-1-.82,1.07,1.07,0,0,1,0-.25c0-.24,0-.48,0-.72v-.07H5.77a1.08,1.08,0,0,1-1.08-.87,1.71,1.71,0,0,1,0-.45V7.75a1.09,1.09,0,0,1,.86-1.08,3.44,3.44,0,0,1,.46,0h.07V5A1.15,1.15,0,0,1,7.17,3.85h4A1.12,1.12,0,0,1,12.32,5V6.65ZM6,11.09V11C6,10.4,6,9.8,6,9.19c0,0,0-.07.07-.07h6.23v2h.21a.68.68,0,0,0,.7-.7V7.77a.68.68,0,0,0-.71-.71H5.76a.68.68,0,0,0-.68.68v2.67a.68.68,0,0,0,.34.59A1.13,1.13,0,0,0,6,11.09ZM6.41,9.5v2.8A.66.66,0,0,0,7.1,13h4.15a.66.66,0,0,0,.69-.68V9.5Zm5.48-2.86a.08.08,0,0,0,0,0V5s0-.07,0-.11a.7.7,0,0,0-.72-.58h-4A.7.7,0,0,0,6.47,5V6.64Z" transform="translate(-0.38 0.22)" style="fill:#fff"/><path d="M7.08,13.48a1.16,1.16,0,0,1-1.14-.9,1.27,1.27,0,0,1,0-.28v-.68H5.77a1.2,1.2,0,0,1-1.2-1,2.08,2.08,0,0,1,0-.43V7.75a1.21,1.21,0,0,1,1-1.19,2.12,2.12,0,0,1,.43,0V5a1.22,1.22,0,0,1,.9-1.19.93.93,0,0,1,.34,0q2,0,4,0A1.22,1.22,0,0,1,12.43,5V6.53h.26a1.22,1.22,0,0,1,1.06,1,2,2,0,0,1,0,.25v2.61a1.18,1.18,0,0,1-.48,1,1.14,1.14,0,0,1-.74.25h-.12v.67a1.16,1.16,0,0,1-1,1.18,1.34,1.34,0,0,1-.28,0ZM6,6.75H6a2.9,2.9,0,0,0-.43,0,1,1,0,0,0-.78,1v2.48a1.71,1.71,0,0,0,0,.39,1,1,0,0,0,1,.78h.37v.9a.85.85,0,0,0,0,.23.91.91,0,0,0,.91.72h4.33a.93.93,0,0,0,.79-1V11.4h.35a.91.91,0,0,0,.6-.21,1,1,0,0,0,.39-.8V7.78a1.8,1.8,0,0,0,0-.22,1,1,0,0,0-.85-.8h-.46V6.57c0-.53,0-1.06,0-1.59a1,1,0,0,0-1-1h-4a1.16,1.16,0,0,0-.28,0,1,1,0,0,0-.73,1V6.75ZM9.86,13.1H7.1a.79.79,0,0,1-.81-.8V9.39h5.76V12.3a.78.78,0,0,1-.8.8ZM6.52,9.62V12.3a.55.55,0,0,0,.58.57h4.15a.55.55,0,0,0,.57-.57V9.62Zm-.68,1.59a.84.84,0,0,1-.48-.12.77.77,0,0,1-.4-.68V7.74A.8.8,0,0,1,5.76,7h6.76a.8.8,0,0,1,.83.82v2.62a.8.8,0,0,1-.82.81h-.32v-2H6.14v2h-.3Zm-.08-4a.57.57,0,0,0-.57.56v2.67a.56.56,0,0,0,.29.49.76.76,0,0,0,.43.08V9.19A.17.17,0,0,1,6.09,9h6.34v2h.09a.58.58,0,0,0,.6-.59V7.77a.57.57,0,0,0-.6-.59Zm6.13-.43H6.36V5a.82.82,0,0,1,.83-.84h4a.83.83,0,0,1,.83.68A.57.57,0,0,1,12,5V6.74Zm-5.3-.23h5.19V4.87a.6.6,0,0,0-.61-.49h-4a.59.59,0,0,0-.6.61Z" transform="translate(-0.38 0.22)" style="fill:#fff"/><path d="M6.47,8h.36s.07,0,.07.07v.36c0,.05,0,.06-.07.06H6.1S6,8.45,6,8.4a2,2,0,0,0,0-.35C6,8,6.05,8,6.1,8Z" transform="translate(-0.38 0.22)" style="fill:#fff"/><path d="M6.83,8.59H6.1a.17.17,0,0,1-.18-.19V8.05a.17.17,0,0,1,0-.13.17.17,0,0,1,.12,0h.74a.14.14,0,0,1,.13,0,.17.17,0,0,1,0,.13v.36A.17.17,0,0,1,6.83,8.59Zm-.37-.23h.32V8.1H6.15v.26Z" transform="translate(-0.38 0.22)" style="fill:#fff"/><path d="M9.19,12H7.38c-.15,0-.23-.09-.22-.21a.19.19,0,0,1,.16-.17H11a.18.18,0,0,1,.2.13A.19.19,0,0,1,11,12H9.19Z" transform="translate(-0.38 0.22)" style="fill:#fff"/><path d="M10.85,12.13H7.37A.33.33,0,0,1,7.12,12a.29.29,0,0,1-.07-.24.28.28,0,0,1,.26-.26H11a.3.3,0,0,1,.31.2.31.31,0,0,1-.3.41Zm-3.49-.39h0a.06.06,0,0,0-.06.06.06.06,0,0,0,0,.06.11.11,0,0,0,.08,0H11a.12.12,0,0,0,.08,0,0,0,0,0,0,0-.06s0-.06-.09-.06H7.36Z" transform="translate(-0.38 0.22)" style="fill:#fff"/><path d="M9.19,10.84H7.37a.19.19,0,0,1-.21-.19.2.2,0,0,1,.21-.19H11a.2.2,0,0,1,.21.16.19.19,0,0,1-.16.22H9.19Z" transform="translate(-0.38 0.22)" style="fill:#fff"/><path d="M11,11H7.37a.33.33,0,0,1-.24-.1A.29.29,0,0,1,7,10.65a.31.31,0,0,1,.33-.3H11a.3.3,0,0,1,.27.48.28.28,0,0,1-.21.12Zm-3.62-.39a.09.09,0,0,0-.1.08.08.08,0,0,0,0,0,.11.11,0,0,0,.08,0h3.68l0,0a.13.13,0,0,0,0-.06.09.09,0,0,0-.1-.07Z" transform="translate(-0.38 0.22)" style="fill:#fff"/><path d="M9.31,17.65a8.94,8.94,0,1,1,8.94-8.93A8.95,8.95,0,0,1,9.31,17.65Zm0-17a8.1,8.1,0,1,0,8.1,8.1A8.1,8.1,0,0,0,9.31.62Z" transform="translate(-0.38 0.22)" style="fill:#fff"/></svg>