<svg id="圖層_1" data-name="圖層 1" xmlns="http://www.w3.org/2000/svg" viewBox="0 0 17.87 17.87"><title>mailicon</title><path d="M12.3,4.9H6.36A1.87,1.87,0,0,0,4.49,6.77v3.9a1.87,1.87,0,0,0,1.87,1.86H12.3a1.86,1.86,0,0,0,1.86-1.86V6.77A1.87,1.87,0,0,0,12.3,4.9Zm-5.94.84H12.3a1,1,0,0,1,.88.53L9.85,8.68a.9.9,0,0,1-1,0L5.48,6.27A1,1,0,0,1,6.36,5.74Zm5.94,5.95H6.36a1,1,0,0,1-1-1V7.21l3,2.15a1.69,1.69,0,0,0,1,.33,1.72,1.72,0,0,0,1-.33l3-2.15v3.46A1,1,0,0,1,12.3,11.69Z" transform="translate(-0.39 0.22)" style="fill:#fff"/><path d="M9.33,17.65a8.94,8.94,0,1,1,8.93-8.93A8.95,8.95,0,0,1,9.33,17.65Zm0-17a8.1,8.1,0,1,0,8.09,8.1A8.1,8.1,0,0,0,9.33.62Z" transform="translate(-0.39 0.22)" style="fill:#fff"/></svg>