<svg id="圖層_1" data-name="圖層 1" xmlns="http://www.w3.org/2000/svg" viewBox="0 0 17.87 17.87"><title>phoneicon</title><path d="M11.21,13.47a4.22,4.22,0,0,1-1.2-.25l-.2-.08a7.35,7.35,0,0,1-1.39-.61,9.85,9.85,0,0,1-2.18-1.87A6.79,6.79,0,0,1,5,8.8c-.17-.4-.34-.84-.51-1.36a2.71,2.71,0,0,1,.31-2.31,1.8,1.8,0,0,1,1.38-.92.82.82,0,0,1,1,.51c.26.47.54.94.81,1.41a.71.71,0,0,1-.11,1l-.37.33-.19.16-.27.25c.15.26.29.5.44.74a5.68,5.68,0,0,0,2,1.89l.43.24.49-.54a2.44,2.44,0,0,1,.27-.29.71.71,0,0,1,1-.1l1.65,1a.61.61,0,0,1,.3.58,2.57,2.57,0,0,1-.24,1,1.61,1.61,0,0,1-.4.47A2.89,2.89,0,0,1,11.21,13.47ZM6.45,4.86l-.2,0a1.16,1.16,0,0,0-.88.58,2,2,0,0,0-.25,1.75c.17.5.33.93.49,1.31A6.19,6.19,0,0,0,6.75,10.2a9.48,9.48,0,0,0,2,1.74,7.29,7.29,0,0,0,1.27.56l.2.07a2.87,2.87,0,0,0,.95.21h0a2.23,2.23,0,0,0,1.33-.51.87.87,0,0,0,.22-.24,1.66,1.66,0,0,0,.17-.72l-.34-.16-1.27-.75-.1-.05-.07.06-.22.24-.47.54a.67.67,0,0,1-.88.15l-.42-.24A6.26,6.26,0,0,1,6.9,9c-.15-.24-.29-.5-.43-.75a.65.65,0,0,1,.1-.84l.29-.27.21-.18a2.89,2.89,0,0,0,.32-.29l.07-.07s0,0-.06-.09c-.28-.47-.55-.94-.82-1.42A1.16,1.16,0,0,0,6.45,4.86Z" style="fill:#fff"/><path d="M8.94,17.87a8.94,8.94,0,1,1,8.93-8.93A8.95,8.95,0,0,1,8.94,17.87Zm0-17A8.1,8.1,0,1,0,17,8.94,8.1,8.1,0,0,0,8.94.84Z" style="fill:#fff"/></svg>